<?xml version="1.0" encoding="UTF-8" standalone="no"?>
<!-- Created with Inkscape (http://www.inkscape.org/) -->

<svg
   xmlns:dc="http://purl.org/dc/elements/1.1/"
   xmlns:cc="http://creativecommons.org/ns#"
   xmlns:rdf="http://www.w3.org/1999/02/22-rdf-syntax-ns#"
   xmlns:svg="http://www.w3.org/2000/svg"
   xmlns="http://www.w3.org/2000/svg"
   xmlns:sodipodi="http://sodipodi.sourceforge.net/DTD/sodipodi-0.dtd"
   xmlns:inkscape="http://www.inkscape.org/namespaces/inkscape"
   width="31.68972mm"
   height="24.484566mm"
   viewBox="0 0 31.68972 24.484566"
   version="1.1"
   id="svg2716"
   inkscape:version="0.92.2 (5c3e80d, 2017-08-06)"
   sodipodi:docname="food.svg">
  <defs
     id="defs2710" />
  <sodipodi:namedview
     id="base"
     pagecolor="#ffffff"
     bordercolor="#666666"
     borderopacity="1.0"
     inkscape:pageopacity="0.0"
     inkscape:pageshadow="2"
     inkscape:zoom="5.6"
     inkscape:cx="79.373355"
     inkscape:cy="16.902325"
     inkscape:document-units="mm"
     inkscape:current-layer="layer1"
     showgrid="false"
     inkscape:window-width="1920"
     inkscape:window-height="1017"
     inkscape:window-x="1592"
     inkscape:window-y="6"
     inkscape:window-maximized="1"
     fit-margin-top="0"
     fit-margin-left="0"
     fit-margin-right="0"
     fit-margin-bottom="0" />
  <metadata
     id="metadata2713">
    <rdf:RDF>
      <cc:Work
         rdf:about="">
        <dc:format>image/svg+xml</dc:format>
        <dc:type
           rdf:resource="http://purl.org/dc/dcmitype/StillImage" />
        <dc:title></dc:title>
      </cc:Work>
    </rdf:RDF>
  </metadata>
  <g
     inkscape:label="Layer 1"
     inkscape:groupmode="layer"
     id="layer1"
     transform="translate(-40.095622,-39.82922)">
    <path
       style="opacity:1;fill:#ffffff;fill-opacity:1;stroke:none;stroke-width:0.52916664;stroke-linecap:round;stroke-linejoin:round;stroke-miterlimit:0.2;stroke-dasharray:none;stroke-opacity:1"
       d="m 40.658232,42.895049 0.80752,-0.007 0.0877,6.02593 0.41074,0.008 0.0235,-6.03812 1.12966,-0.01 0.0596,6.07978 0.4177,0.0128 0.0464,-6.11003 0.95985,-0.009 0.31892,8.10552 c -0.19657,0.84677 -0.68892,1.4289 -1.48395,1.74021 l -0.19027,10.427131 c -1.33429,0.85145 -1.52503,0.20445 -2.00428,-0.0645 l -0.0917,-10.81506 c -0.47945,-0.12527 -0.82652,-0.54838 -1.054,-1.24058 z"
       id="rect847"
       inkscape:connector-curvature="0"
       sodipodi:nodetypes="ccccccccccccccccc" />
    <path
       style="opacity:1;fill:#ffffff;fill-opacity:1;stroke:none;stroke-width:0.52916664;stroke-linecap:round;stroke-linejoin:round;stroke-miterlimit:0.2;stroke-dasharray:none;stroke-opacity:1"
       d="m 53.75168,55.117601 3.88769,-3.87426 c 1.34696,-1.07836 2.81262,-0.85094 4.34828,0.14635 2.12017,1.75337 1.14324,4.32299 0.007,5.13004 -1.07793,0.83707 -4.0446,1.16858 -5.43479,-1.32337 l 1.0622,-1.04345 c 1.25021,1.228 2.75655,1.71767 3.41224,0.71375 0.72097,-1.33768 0.30326,-1.71988 -0.30691,-2.29858 -0.77328,-0.61243 -1.50329,-0.44597 -2.21378,0.0717 l -3.98218,4.1341 c -1.59714,0.88748 -2.71251,0.5207 -3.8856,-0.18437 -0.99179,-0.56253 -2.2426,-2.78868 -0.0472,-5.30832 1.87455,-1.15259 3.71578,-0.77249 5.52735,0.97253 l -1.32056,1.27217 c -0.91223,-1.01057 -1.91859,-1.71734 -3.01155,-0.68398 -0.86841,0.88561 -0.52192,1.88348 -0.0466,2.21186 0.26957,0.49666 1.29556,0.65552 2.00464,0.0638 z"
       id="rect851"
       inkscape:connector-curvature="0"
       sodipodi:nodetypes="cccccccccccccccccc" />
    <rect
       style="opacity:1;fill:#ffffff;fill-opacity:1;stroke:none;stroke-width:1.60852754;stroke-linecap:round;stroke-linejoin:round;stroke-miterlimit:0.2;stroke-dasharray:none;stroke-opacity:1"
       id="rect853"
       width="5.1449385"
       height="2.4054258"
       x="53.945099"
       y="39.82922" />
    <rect
       style="opacity:1;fill:#ffffff;fill-opacity:1;stroke:none;stroke-width:0.39262208;stroke-linecap:round;stroke-linejoin:round;stroke-miterlimit:0.2;stroke-dasharray:none;stroke-opacity:1"
       id="rect855"
       width="3.641546"
       height="0.86863631"
       x="54.746902"
       y="42.43507" />
    <path
       style="opacity:1;fill:#ffffff;fill-opacity:1;stroke:none;stroke-width:0.52916664;stroke-linecap:round;stroke-linejoin:round;stroke-miterlimit:0.2;stroke-dasharray:none;stroke-opacity:1"
       d="m 68.444472,52.02339 c 0.31536,-2.410991 0.19756,-4.46832 0.77976,-7.501941 0.51715,-1.178739 1.63484,-1.27652 2.56111,-1.71886 l -0.10022,20.345901 c -0.95151,0.67494 -1.6188,0.42623 -2.21709,-0.0468 l 0.21257,-9.74199 c -0.67805,-0.34649 -1.05229,-0.6627 -1.23613,-1.33635 z"
       id="rect857"
       inkscape:connector-curvature="0"
       sodipodi:nodetypes="ccccccc" />
    <path
       style="opacity:1;fill:#ffffff;fill-opacity:0.91414142;stroke:none;stroke-width:1.37822223;stroke-linecap:round;stroke-linejoin:round;stroke-miterlimit:0.2;stroke-dasharray:none;stroke-opacity:1"
       d="m 56.310412,43.733246 c -0.13319,0 -0.26596,0.0027 -0.39791,0.0078 -0.39584,0.015 -0.7857,0.05206 -1.16892,0.110588 -0.15581,0.02381 -0.31009,0.05247 -0.46354,0.0832 -0.0145,0.0029 -0.0294,0.0048 -0.0439,0.0078 -0.0242,0.005 -0.0477,0.0114 -0.0718,0.01654 -0.12357,0.02625 -0.24656,0.05464 -0.36845,0.08527 -0.0298,0.0075 -0.0597,0.01497 -0.0894,0.02273 -0.15332,0.04 -0.30534,0.08188 -0.45578,0.128675 -6e-5,1.5e-5 5e-5,5.29e-4 0,5.29e-4 -0.16094,0.05006 -0.32047,0.103597 -0.47801,0.161232 -2.1e-4,7.4e-5 -2.6e-4,5.29e-4 -5.3e-4,5.29e-4 -0.15738,0.05759 -0.31306,0.118504 -0.46664,0.183451 l -5.3e-4,5.29e-4 c -0.15388,0.06508 -0.30591,0.134001 -0.45578,0.20619 -0.14987,0.07219 -0.29759,0.147654 -0.44339,0.226859 -0.1458,0.0792 -0.28964,0.161642 -0.43098,0.247531 -2e-4,1.22e-4 -2.6e-4,2.65e-4 -5.3e-4,5.29e-4 -0.0166,0.01011 -0.0325,0.02132 -0.0491,0.03152 -0.0903,0.05582 -0.17956,0.11266 -0.26768,0.171567 -0.033,0.02175 -0.067,0.04196 -0.0997,0.06408 l -5.3e-4,5.29e-4 c -0.057,0.03847 -0.11177,0.07982 -0.16795,0.119372 -0.0786,0.05535 -0.15821,0.109403 -0.23513,0.166915 -1.9e-4,1.4e-4 -7.9e-4,2.46e-4 -10e-4,5.29e-4 -0.13187,0.0986 -0.26122,0.200202 -0.38809,0.304893 l -5.3e-4,5.29e-4 c -0.1307,0.107921 -0.25668,0.221097 -0.38133,0.335902 -0.0572,0.05161 -0.11346,0.104225 -0.1695,0.157096 -0.002,0.0016 -0.003,0.003 -0.005,0.0047 -0.0581,0.0554 -0.11738,0.109628 -0.17415,0.166399 l -5.3e-4,5.3e-4 c -0.007,0.0069 -0.0133,0.01426 -0.0202,0.02119 -0.052,0.05305 -0.10274,0.107415 -0.154,0.161229 -0.0554,0.0581 -0.11238,0.114731 -0.16639,0.174151 v 5.29e-4 5.29e-4 c -0.12751,0.140298 -0.24977,0.284837 -0.36949,0.432014 -0.0346,0.04254 -0.0679,0.08609 -0.1018,0.129191 -0.0838,0.106392 -0.16586,0.214291 -0.24547,0.324011 -0.0372,0.0512 -0.0738,0.102606 -0.11007,0.154512 -0.0799,0.114525 -0.15724,0.230936 -0.23254,0.348816 -0.027,0.04226 -0.0547,0.08393 -0.0811,0.126606 -0.0139,0.02252 -0.0292,0.04404 -0.0429,0.06666 v 5.29e-4 c -0.0494,0.0812 -0.0955,0.164819 -0.14262,0.247531 -0.0349,0.0613 -0.0717,0.12138 -0.10542,0.183451 v 5.3e-4 c -0.0723,0.133056 -0.14077,0.268599 -0.20722,0.405143 -0.0178,0.03663 -0.0348,0.07371 -0.0522,0.110588 -0.0457,0.09692 -0.09,0.194453 -0.1328,0.293005 -0.0132,0.03039 -0.0279,0.0599 -0.0408,0.09043 v 5.29e-4 c -0.007,0.01648 -0.0127,0.03359 -0.0196,0.05012 -0.0572,0.137388 -0.11295,0.275696 -0.16433,0.415997 l -5.3e-4,5.29e-4 c -0.0465,0.126923 -0.0888,0.255772 -0.13023,0.38499 -0.01,0.03102 -0.0213,0.06136 -0.031,0.0925 -1.2e-4,2.64e-4 -5.3e-4,7.93e-4 -5.3e-4,0.0011 -0.0358,0.11511 -0.0669,0.23201 -0.0987,0.348816 -0.005,0.0199 -0.0117,0.03947 -0.017,0.05943 -0.008,0.02625 -0.0159,0.05246 -0.0227,0.07906 v 5.29e-4 c -4e-5,1.61e-4 4e-5,2.65e-4 0,5.29e-4 -0.0422,0.16423 -0.0805,0.329832 -0.11472,0.497128 -4e-5,1.64e-4 3e-5,2.65e-4 0,5.3e-4 -0.0342,0.167296 -0.0644,0.33629 -0.0904,0.506428 -2e-5,1.69e-4 3e-5,2.65e-4 0,5.29e-4 -0.026,0.170143 -0.0481,0.341392 -0.0656,0.514181 -1e-5,1.72e-4 2e-5,2.64e-4 0,5.29e-4 v 5.29e-4 c -0.0175,0.172614 -0.0309,0.346379 -0.0398,0.521415 -1e-5,1.74e-4 10e-6,2.64e-4 0,5.29e-4 v 2.22e-4 c -5.3e-4,0.0084 -1.1e-4,0.01693 -5.3e-4,0.02532 -0.008,0.166954 -0.0129,0.334904 -0.0129,0.503846 0,0.177244 0.005,0.353597 0.0134,0.52865 v 5.3e-4 c 10e-6,1.71e-4 -1e-5,2.64e-4 0,5.29e-4 0.009,0.175035 0.0223,0.348795 0.0398,0.521417 v 5.29e-4 c 2e-5,1.69e-4 -1e-5,2.64e-4 0,5.29e-4 0.0175,0.172784 0.0396,0.344559 0.0656,0.514699 3e-5,1.67e-4 -2e-5,2.65e-4 0,5.29e-4 0.026,0.170135 0.0562,0.338617 0.0904,0.505913 3e-5,1.64e-4 -4e-5,2.64e-4 0,5.29e-4 0.0342,0.167293 0.0726,0.333449 0.11472,0.497644 0.012,0.0468 0.0266,0.0925 0.0393,0.13901 0.0147,0.054 0.0309,0.107386 0.046,0.161231 0.0181,0.06243 0.034,0.125638 0.0532,0.187585 1.1e-4,2.64e-4 5.3e-4,7.94e-4 5.3e-4,0.0011 0.0161,0.05166 0.0348,0.102164 0.0517,0.153477 0.0881,0.268414 0.18489,0.53309 0.29404,0.791168 6e-5,1.48e-4 -6e-5,2.64e-4 0,5.29e-4 0.0806,0.190661 0.16892,0.377235 0.26045,0.561723 0.0242,0.04877 0.0495,0.09688 0.0744,0.145212 0.033,0.06396 0.0639,0.129042 0.0982,0.192235 l 5.3e-4,5.3e-4 c 0.044,0.0809 0.0914,0.159641 0.13747,0.239262 0.0236,0.04081 0.0466,0.08202 0.0708,0.122473 0.0135,0.02265 0.0256,0.04622 0.0393,0.06873 v 5.29e-4 c 0.0941,0.154826 0.19317,0.306438 0.29508,0.455785 0.0123,0.01799 0.0254,0.03532 0.0377,0.05323 0.10521,0.152122 0.2151,0.300968 0.32815,0.447 0.0305,0.0394 0.0614,0.07836 0.0925,0.117306 0.1197,0.150103 0.24226,0.297217 0.37,0.440282 0.008,0.0095 0.0163,0.0195 0.0248,0.02894 0.0119,0.01326 0.0231,0.02711 0.0351,0.04031 0.11081,0.121909 0.22459,0.240625 0.34107,0.357084 0.0197,0.01971 0.0406,0.0383 0.0605,0.05788 0.0283,0.02786 0.0577,0.05463 0.0863,0.08217 0.0698,0.06734 0.13859,0.135832 0.21032,0.20102 0.0729,0.06624 0.14794,0.130672 0.22273,0.194821 0.005,0.004 0.009,0.0084 0.0139,0.01241 0.16465,0.140716 0.33405,0.275912 0.50746,0.406175 0.006,0.0047 0.0119,0.0098 0.0181,0.01447 0.005,0.0039 0.0107,0.0075 0.016,0.01138 0.12733,0.09482 0.25586,0.187482 0.38757,0.276469 0.26324,0.177829 0.53623,0.342249 0.81597,0.495578 0.0109,0.006 0.0211,0.01318 0.032,0.01913 0.01,0.0054 0.0205,0.01011 0.0305,0.0155 0.13626,0.07344 0.27353,0.144994 0.41342,0.212389 0.29989,0.14451 0.60774,0.274746 0.92294,0.390157 0.1576,0.0577 0.3169,0.111638 0.478,0.161748 h 5.3e-4 c 0.0181,0.0056 0.0367,0.01 0.0548,0.0155 0.12288,0.03747 0.24677,0.07299 0.37156,0.105937 0.0552,0.0146 0.1108,0.02816 0.16639,0.04186 0.0951,0.02339 0.19072,0.04489 0.28681,0.06563 0.0357,0.0077 0.0706,0.01749 0.10645,0.02479 0.0222,0.0046 0.0449,0.0075 0.0672,0.01188 0.11813,0.02336 0.23703,0.04429 0.35657,0.06356 0.0277,0.0045 0.0549,0.01074 0.0827,0.01498 0.37618,0.0575 0.75973,0.09456 1.14825,0.110072 0.007,2.64e-4 0.0141,7.94e-4 0.0212,0.0011 1.7e-4,8e-6 2.6e-4,-5e-6 5.3e-4,0 0.13177,0.005 0.26385,0.0072 0.39687,0.0072 1.8e-4,3e-6 2.7e-4,0 5.3e-4,0 0.53278,0 1.05588,-0.0403 1.56683,-0.118337 0.15778,-0.0241 0.31439,-0.05303 0.46974,-0.08423 0.0125,-0.0024 0.0253,-0.0042 0.0377,-0.0067 0.0202,-0.0041 0.0398,-0.0097 0.0599,-0.01394 0.12856,-0.02714 0.25618,-0.05649 0.38292,-0.08837 0.0286,-0.0072 0.0573,-0.01376 0.0858,-0.02119 0.1537,-0.04007 0.30603,-0.08281 0.45682,-0.129707 2.1e-4,-6.6e-5 2.7e-4,-5.29e-4 5.3e-4,-5.29e-4 0.32177,-0.100103 0.63728,-0.215212 0.94464,-0.345197 1.3e-4,-5.5e-5 5.3e-4,-2.64e-4 5.3e-4,-5.29e-4 1.5e-4,-6.1e-5 2.7e-4,6.4e-5 5.3e-4,0 0.30762,-0.130109 0.60718,-0.274722 0.89866,-0.433046 0.14587,-0.07918 0.29005,-0.162108 0.43149,-0.248047 0.0212,-0.01286 0.0415,-0.02674 0.0625,-0.03979 0.0838,-0.05204 0.16664,-0.104997 0.24857,-0.159681 0.035,-0.02302 0.0712,-0.04426 0.10593,-0.0677 l 5.3e-4,-5.29e-4 c 0.13666,-0.0923 0.27121,-0.18768 0.40308,-0.286288 l 5.3e-4,-5.29e-4 c 0.13186,-0.0986 0.26122,-0.200199 0.38809,-0.30489 l 5.3e-4,-5.29e-4 c 0.13074,-0.107915 0.25672,-0.221091 0.38137,-0.335899 0.0572,-0.05161 0.11346,-0.104222 0.1695,-0.157096 0.002,-0.0016 0.004,-0.0031 0.005,-0.0047 0.0581,-0.0554 0.11738,-0.10963 0.17415,-0.166399 l 5.3e-4,-5.29e-4 c 0.0595,-0.05948 0.11617,-0.121571 0.17415,-0.18242 0.0554,-0.0581 0.11239,-0.114729 0.1664,-0.174149 v -5.29e-4 -5.29e-4 c 0.12593,-0.138568 0.24701,-0.281051 0.36535,-0.426328 0.039,-0.04785 0.0761,-0.09717 0.1142,-0.145728 0.0811,-0.103264 0.16055,-0.207809 0.23771,-0.314192 0.0356,-0.04907 0.0712,-0.09808 0.10594,-0.147797 0.0825,-0.118125 0.16215,-0.23849 0.23978,-0.360185 0.0256,-0.04006 0.052,-0.07946 0.077,-0.119888 0.0141,-0.02281 0.0295,-0.04477 0.0434,-0.0677 v -5.29e-4 c 0.0494,-0.0812 0.0955,-0.164822 0.14263,-0.247531 0.0349,-0.0613 0.0717,-0.121383 0.10542,-0.183452 v -5.29e-4 c 0.0724,-0.133194 0.1407,-0.268457 0.20722,-0.405143 0.0174,-0.0358 0.0341,-0.07198 0.0512,-0.108006 0.0467,-0.09887 0.0918,-0.198633 0.13539,-0.299206 0.0127,-0.02916 0.0269,-0.05752 0.0393,-0.08681 v -5.3e-4 c 0.007,-0.01601 0.0124,-0.03254 0.0191,-0.04858 0.0574,-0.137851 0.11329,-0.276762 0.16485,-0.417544 l 5.3e-4,-5.3e-4 c 0.0465,-0.12692 0.0888,-0.255772 0.13022,-0.384987 0.01,-0.03102 0.0213,-0.06136 0.031,-0.0925 1.1e-4,-2.64e-4 4e-4,-7.94e-4 5.3e-4,-0.0011 0.0358,-0.115104 0.0674,-0.232048 0.0992,-0.348816 0.0126,-0.0464 0.0273,-0.0919 0.0393,-0.138494 v -5.29e-4 c 4e-5,-1.61e-4 -4e-5,-2.64e-4 0,-5.29e-4 0.0422,-0.164193 0.0805,-0.329832 0.11472,-0.497128 4e-5,-1.67e-4 -3e-5,-2.65e-4 0,-5.29e-4 0.0342,-0.167302 0.0644,-0.335781 0.0904,-0.505913 3e-5,-1.69e-4 -2e-5,-2.64e-4 0,-5.29e-4 0.026,-0.170138 0.0481,-0.341913 0.0656,-0.514699 2e-5,-1.7e-4 -1e-5,-2.65e-4 0,-5.29e-4 v -5.3e-4 c 0.0175,-0.17263 0.0309,-0.346382 0.0398,-0.521417 1e-5,-1.69e-4 0,-2.64e-4 0,-5.29e-4 v -5.29e-4 c 0.009,-0.175051 0.0134,-0.351396 0.0134,-0.528651 v -5.29e-4 c 0,-0.177244 -0.005,-0.353597 -0.0134,-0.528651 v -5.29e-4 c 0,-1.72e-4 1e-5,-2.64e-4 0,-5.29e-4 -0.009,-0.175043 -0.0222,-0.34879 -0.0398,-0.521414 v -5.3e-4 c -2e-5,-1.71e-4 2e-5,-2.64e-4 0,-5.29e-4 -0.0175,-0.172788 -0.0396,-0.34404 -0.0656,-0.51418 -2e-5,-1.67e-4 3e-5,-2.65e-4 0,-5.3e-4 -0.026,-0.170135 -0.0562,-0.339127 -0.0904,-0.506428 -3e-5,-1.64e-4 4e-5,-2.64e-4 0,-5.29e-4 -0.0343,-0.167307 -0.0725,-0.332888 -0.11472,-0.497128 -4e-5,-1.62e-4 4e-5,-2.65e-4 0,-5.29e-4 -0.012,-0.0468 -0.0266,-0.0925 -0.0393,-0.13901 -0.0318,-0.116806 -0.0635,-0.233696 -0.0992,-0.348816 -1.1e-4,-2.65e-4 -4e-4,-7.94e-4 -5.3e-4,-0.0011 -0.0161,-0.05167 -0.0348,-0.102148 -0.0517,-0.15348 -0.0882,-0.268412 -0.18489,-0.533088 -0.29404,-0.791165 -6e-5,-1.45e-4 6e-5,-2.64e-4 0,-5.29e-4 -0.0806,-0.190662 -0.16892,-0.377235 -0.26045,-0.561724 -0.024,-0.04845 -0.0491,-0.09617 -0.0739,-0.144177 -0.0332,-0.06431 -0.0642,-0.129738 -0.0987,-0.19327 l -5.3e-4,-5.29e-4 c -0.0456,-0.08389 -0.0948,-0.165537 -0.14262,-0.248047 -0.021,-0.03613 -0.0412,-0.07267 -0.0625,-0.108519 -0.0145,-0.02437 -0.0276,-0.04967 -0.0424,-0.0739 V 48.6868 c -0.0949,-0.156228 -0.19476,-0.309271 -0.29766,-0.45992 -0.008,-0.01193 -0.0171,-0.02326 -0.0253,-0.03514 -0.10878,-0.157832 -0.22283,-0.311724 -0.34003,-0.463021 -0.0288,-0.03717 -0.0575,-0.07434 -0.0868,-0.111103 -0.12089,-0.15175 -0.24504,-0.300369 -0.37414,-0.444934 -0.008,-0.0093 -0.016,-0.01916 -0.0243,-0.02842 -0.0119,-0.01326 -0.0231,-0.02711 -0.0351,-0.04031 -0.11084,-0.121905 -0.22461,-0.240618 -0.34109,-0.357077 -0.0197,-0.01971 -0.0406,-0.0383 -0.0605,-0.05788 -0.0278,-0.02736 -0.0566,-0.05357 -0.0848,-0.08062 -0.0704,-0.06786 -0.13962,-0.136892 -0.21188,-0.202572 -0.0759,-0.06902 -0.15401,-0.136332 -0.23203,-0.203087 -0.16404,-0.140369 -0.33264,-0.275161 -0.50539,-0.405143 -0.008,-0.0063 -0.0163,-0.01331 -0.0248,-0.01963 -0.008,-0.0061 -0.0166,-0.01162 -0.0248,-0.01757 -0.12449,-0.0925 -0.25011,-0.183333 -0.37879,-0.270267 -0.26117,-0.176432 -0.53183,-0.33964 -0.80925,-0.491961 -0.0131,-0.0072 -0.0256,-0.01558 -0.0388,-0.02273 -0.0112,-0.0061 -0.0229,-0.01151 -0.0341,-0.01757 -0.13504,-0.07273 -0.27118,-0.143542 -0.40979,-0.210322 -0.29989,-0.144511 -0.60774,-0.274749 -0.92294,-0.390158 -0.1576,-0.0577 -0.3169,-0.111638 -0.47801,-0.161747 h -5.3e-4 c -0.0191,-0.0059 -0.0387,-0.01072 -0.0579,-0.01654 -0.12117,-0.0369 -0.24335,-0.07136 -0.36638,-0.103871 -0.0578,-0.01529 -0.11599,-0.02911 -0.17415,-0.04341 -0.0897,-0.02201 -0.17968,-0.04339 -0.27027,-0.06305 -0.0393,-0.0085 -0.0779,-0.01881 -0.1173,-0.02687 -0.0231,-0.0047 -0.0466,-0.0078 -0.0698,-0.01241 -0.11728,-0.02315 -0.23532,-0.04391 -0.35399,-0.06305 -0.0277,-0.0045 -0.0549,-0.01074 -0.0827,-0.01497 -0.12774,-0.01953 -0.25624,-0.0364 -0.3855,-0.05116 -0.25837,-0.02949 -0.52012,-0.04944 -0.78393,-0.05943 -1.8e-4,-8e-6 -2.7e-4,6e-6 -5.3e-4,0 -0.132,-0.005 -0.2642,-0.0078 -0.39739,-0.0078 z m -0.60926,1.564762 c 0.046,0.301659 0.0192,1.426845 0.0915,1.428855 0.0929,0.003 1.5937,-0.01138 1.5937,-0.01138 0,0 -0.002,-0.127894 -0.003,-0.159165 0.0175,0.0011 0.0542,0.0011 0.0661,0.0031 0.0594,0.0076 0.0724,-0.876035 0.11421,-1.197343 1.04374,0.150008 2.02805,0.484122 2.92023,0.968418 -0.12594,0.273608 -0.59169,0.919839 -0.59169,0.919839 l 0.97926,0.636654 c 0,0 0.47579,-0.654404 0.72761,-0.838708 0.70819,0.535736 1.33379,1.175748 1.85363,1.897041 0.0699,0.09907 0.13772,0.19925 0.20361,0.301274 -0.22916,0.20516 -1.06867,0.719855 -1.06867,0.719855 l 0.63613,1.055747 c 0,0 0.82396,-0.454501 1.11518,-0.50281 0.37234,0.85895 0.60839,1.78932 0.68937,2.764171 -0.15984,0.02976 -1.44133,0.03012 -1.44133,0.03012 -1e-5,0.111519 -0.0138,1.776515 -0.0138,1.776515 0,0 1.15088,-0.0231 1.42205,0.0093 -0.13619,1.108793 -0.48088,2.153072 -0.99167,3.094899 -0.27285,-0.125137 -0.91985,-0.590661 -0.91985,-0.590661 l -0.63665,0.979786 c 0,0 0.64917,0.471064 0.83768,0.723985 -0.59363,0.785307 -1.31369,1.470649 -2.13269,2.021583 -0.0214,0.0141 -0.0441,0.02638 -0.0656,0.04031 -0.2063,-0.232146 -0.71934,-1.070219 -0.71934,-1.070219 l -1.05523,0.636654 c 0,0 0.45371,0.822079 0.50281,1.114145 -0.85975,0.372657 -1.78981,0.614074 -2.76572,0.695047 -0.0541,0.0013 -0.081,0.0021 -0.12919,0.0036 -0.046,-0.301697 -0.0192,-1.426843 -0.0915,-1.428854 -0.0929,-0.003 -1.5937,0.01138 -1.5937,0.01138 0,0 0.002,0.127894 0.003,0.159162 -0.0175,-0.0011 -0.0542,-0.0011 -0.0661,-0.0031 -0.0594,-0.0076 -0.0719,0.876011 -0.11369,1.197345 -1.04402,-0.150011 -2.02838,-0.483957 -2.92075,-0.968417 0.12594,-0.273611 0.59169,-0.91984 0.59169,-0.91984 l -0.97979,-0.636651 c 0,0 -0.47586,0.655172 -0.7276,0.839224 -0.70814,-0.535751 -1.33323,-1.175771 -1.85307,-1.897059 -0.0699,-0.09908 -0.13823,-0.199758 -0.20412,-0.301792 0.22915,-0.205158 1.06867,-0.719852 1.06867,-0.719852 l -0.63614,-1.055748 c 0,0 -0.82396,0.454501 -1.11518,0.502811 -0.37233,-0.858956 -0.60838,-1.789318 -0.68936,-2.764173 0.15986,-0.02976 1.48487,-0.02035 1.48487,-0.02035 1e-5,-0.111521 -0.0162,-1.771036 -0.0162,-1.771036 0,0 -1.16448,0.0077 -1.43564,-0.02455 0.13621,-1.108953 0.48128,-2.15297 0.99219,-3.0949 0.27301,0.125333 0.91932,0.590661 0.91932,0.590661 l 0.63666,-0.979787 c 0,0 -0.64929,-0.471096 -0.83768,-0.723987 0.59363,-0.785339 1.31366,-1.470631 2.13269,-2.021581 0.0214,-0.0141 0.0441,-0.0264 0.0656,-0.04031 0.20582,0.231003 0.71933,1.070219 0.71933,1.070219 l 1.05523,-0.636654 c 0,0 -0.45288,-0.821245 -0.50229,-1.113629 0.85975,-0.372665 1.78928,-0.61459 2.7652,-0.695563 0.0543,-0.0013 0.0813,-0.0021 0.12971,-0.0036 z"
       id="path2625-1"
       inkscape:connector-curvature="0"
       sodipodi:nodetypes="cccccccccccccccccccccccccccccccscccccccccccccccccccccccccccccccccccccccccccsccccccccccccccccccccccccccccccccccccccccccccccccccccccccccccccscccccccccccccccccccccccccccccccccccccccccccccccccccccccccccccccccccscccccccccccccccccccccccccccccccccccccccccccccccccccccccccsccsccccccccccccccccccccccccccccccccccccccccccccccccccccccccccccc" />
  </g>
</svg>
