<svg xmlns="http://www.w3.org/2000/svg" width="761.905" height="571.429" viewBox="0 0 201.587 151.19">
  <path d="M125.184 151.143c-.017-.027-.075-.048-.128-.048-.133 0-10.628-13.818-10.652-14.024-.014-.129-.003-.143.13-.141.08 0 3.89.246 8.465.545 6.452.422 8.329.558 8.363.609.023.035 1.371 2.972 2.995 6.526 2.074 4.538 2.932 6.466 2.882 6.476-.039.01-.057.036-.04.06.018.027-2.314.044-5.977.044-3.948 0-6.017-.016-6.038-.047zm12.463-7.988c-.982-3.287-1.778-6.036-1.768-6.11.016-.123.568-.426 7.115-3.913 3.903-2.08 7.17-3.79 7.259-3.801.153-.02.163-.012.191.162.017.102.294 2.6.616 5.554l.587 5.37-.153.11c-.084.06-2.773 2.022-5.975 4.358-4.282 3.123-5.858 4.247-5.955 4.247-.131 0-.145-.044-1.917-5.977zm19.674.541l-3.585-3.28.142-2.115c.162-2.405.36-4.806.659-8.025.336-3.612.356-4.205.171-4.844-.154-.532-.516-.77-1.415-.929a3.505 3.505 0 0 1-.405-.085c-.031-.029-.165-1.443-.22-2.327a77.196 77.196 0 0 1-.088-2.237l-.035-1.4h.151c.106 0 1.917.967 6.08 3.245l5.927 3.244.011.213c.007.117-.79 5.07-1.768 11.005l-1.78 10.793-.13.01c-.108.01-.72-.53-3.715-3.269zm7.148 3.211c0-.053 3.402-20.796 3.57-21.764l.031-.18h14.546v.166c0 .192-.48 1.438-1.11 2.883-1.741 3.99-3.8 7.496-5.957 10.148-2.467 3.03-6.284 6.195-10.19 8.447-.625.36-.89.45-.89.3zm-51.26-12.049c.015-.111 1.888-2.631 6.566-8.832 5.973-7.919 6.556-8.676 6.675-8.663.127.014.168.153 2.512 8.7 1.31 4.779 2.383 8.747 2.383 8.82v.13h-18.158zm22.636-1c-.19-.472-5.955-17.4-5.955-17.486 0-.092.027-.12.117-.12.065 0 4.411 2.203 9.66 4.894 8.639 4.432 9.542 4.906 9.556 5.02.015.118-.36.343-6.526 3.921-3.597 2.088-6.605 3.806-6.683 3.817-.09.012-.153-.005-.17-.046zM5.348 124.183c-4.022-2.444-5.223-3.197-5.236-3.278-.009-.058-.038-.106-.065-.106-.065 0-.062-.178.004-.215.028-.017.052-.104.052-.195 0-.13 5.253-9.044 24.285-41.213C42.532 48.51 48.657 38.12 48.606 38.088c-.606-.367-2.719-1.332-4.097-1.872-1.61-.631-3.964-1.18-9.385-2.187-3.43-.637-10.622-1.875-13.234-2.278a16.24 16.24 0 0 1-.558-.091c-.016-.009.287-3.524.533-6.198.884-9.604 1.834-17.873 2.657-23.117.16-1.013.302-1.934.318-2.046.016-.12.055-.203.094-.203a.1.1 0 0 0 .089-.06c.017-.048.07-.048.265 0 .134.033.344.06.468.06.379 0 2.923.775 5.26 1.602 5.176 1.833 10.63 4.352 16.194 7.48 3.99 2.243 8.267 4.973 11.666 7.445.395.287.726.514.736.505.154-.155 2.537-4.486 3.222-5.857.795-1.592 1.222-2.222 1.98-2.923.39-.361.607-.522.864-.637.404-.183.948-.283 1.179-.218.086.025 3.354 1.746 7.26 3.825 6.733 3.583 7.103 3.786 7.103 3.912 0 .082-.086.237-.226.408-.646.787-2.447 3.401-4.411 6.402-.586.895-1.093 1.674-1.127 1.733-.058.1-.022.128.68.548 9.438 5.63 19.308 12.716 28.325 20.333 4.364 3.686 9.544 8.443 12.978 11.917 1.38 1.396 2 2.062 2 2.148 0 .119-.287 1.177-.52 1.916a33.166 33.166 0 0 1-2.612 6.094c-.366.66-.494.85-.572.85-.057 0-.452-.298-.916-.69-3.688-3.123-8.987-6.367-16.602-10.165-8.42-4.2-20.102-9.14-31.193-13.19l-2.288-.837-.235-.087-2.779 4.863c-20.765 36.341-37.334 65.072-41.914 72.68-1.757 2.92-1.874 3.085-2.711 3.831-1.007.899-2.225 1.643-4.099 2.505-1.28.589-2.004.867-2.256.867-.145 0-1.08-.55-5.394-3.173zm101.3-13.637c-5.687-8.645-8.923-13.61-8.936-13.706l-.019-.152.46-.099c4.414-.947 15.097-3.167 15.188-3.156.108.012.75 1.223 5.478 10.325 4.253 8.187 5.353 10.343 5.341 10.465-.012.123-.882 1.17-4.164 5.017-3.7 4.336-4.163 4.861-4.29 4.86-.132 0-.707-.86-9.058-13.554zm52.48 9.233c-6.127-3.047-6.562-3.272-6.564-3.389-.003-.11.818-.738 6.549-5.013 4.797-3.58 6.586-4.888 6.682-4.888h.13v16.56l-.117-.004c-.065-.003-3.07-1.472-6.68-3.267zm10.125-5.01v-8.28l.143.003c.129.003.778.792 6.668 8.121 5.124 6.374 6.53 8.153 6.542 8.278l.016.159h-13.369v-8.28zm-25.09 4.985l-3.535-1.085-6.562-27.184c-3.609-14.952-6.563-27.244-6.565-27.316-.003-.1.022-.132.1-.132.118 0 20.336 6.496 20.402 6.555.024.022.583 9.618 1.241 21.325l1.198 21.285-1.194 3.81-1.193 3.811-.178.008c-.112.005-1.485-.393-3.713-1.077zm-11.38-5.44c-2.885-.588-5.262-1.086-5.283-1.108-.022-.022-2.71-4.67-5.974-10.327-3.73-6.464-5.935-10.335-5.935-10.418 0-.12.494-.447 5.94-3.926 4.426-2.827 5.98-3.796 6.09-3.797l.148-.003 5.375 15.244c2.957 8.384 5.376 15.28 5.377 15.327 0 .069-.043.083-.246.079-.136-.003-2.607-.486-5.492-1.073zm20.952-2.522c-.102-1.128-2.372-41.167-2.336-41.2.104-.095 19.028-7.608 19.162-7.608.118 0 .148.021.148.108 0 .112-5.914 41.194-5.954 41.363-.035.142-10.646 7.653-10.84 7.672l-.148.015zm20.886-3.456c-2.005-2.56-2.976-3.838-2.976-3.917 0-.088 1.96-2.18 7.753-8.273 6.636-6.98 7.773-8.155 7.89-8.155.076 0 3.092.98 6.703 2.177 5.964 1.977 6.565 2.186 6.565 2.28 0 .076-3.034 2.724-11.336 9.896-9.435 8.15-11.36 9.793-11.48 9.793-.13 0-.41-.342-3.12-3.8zm-7.76-4.964c0-.03.54-4.727 1.2-10.44l1.199-10.387 2.378-2.709c1.876-2.137 2.405-2.712 2.509-2.724.114-.012.732.603 4.898 4.877 3.975 4.078 4.767 4.913 4.767 5.027 0 .117-1.254 1.363-8.329 8.274-7.256 7.089-8.347 8.136-8.475 8.136-.081 0-.147-.024-.147-.054zm-69.158-8.754c0-.08 1.608-4.055 3.573-8.833 3.504-8.522 3.574-8.686 3.703-8.672.12.012.426.596 3.706 7.073 1.966 3.883 3.576 7.113 3.576 7.18 0 .119-.019.124-7.213 1.76-3.968.903-7.244 1.64-7.28 1.64-.037-.003-.065-.065-.065-.148zm16.513-4.557c-.095-.19-1.709-3.38-3.585-7.086-1.877-3.707-3.412-6.792-3.412-6.856 0-.09.027-.117.117-.115.064 0 4.142 1.226 9.06 2.723l8.944 2.721v.14c0 .125-.553.588-5.355 4.48-3.82 3.096-5.39 4.34-5.475 4.34-.1 0-.152-.061-.294-.347zm80.672-2.928c-6.072-2.017-6.527-2.176-6.54-2.282-.012-.087 1.13-1.55 4.757-6.097 3.971-4.978 4.795-5.985 4.906-5.997l.132-.014 1.676 7.648c.986 4.501 1.674 7.754 1.674 7.906 0 .141.026.393.059.558.052.26.049.31-.023.376-.045.042-.09.075-.099.073l-6.542-2.171zm-13.702-8.148c-3.549-3.648-4.736-4.896-4.748-4.997-.014-.119.004-.137.156-.161.171-.026 19.083-2.18 19.145-2.18.207 0-.233.577-4.727 6.212-4.523 5.671-4.768 5.969-4.927 5.978-.16.01-.375-.203-4.899-4.852zM137.65 63.21c-8.952-3.263-8.958-3.265-8.944-3.395.021-.192 17.773-16.375 17.988-16.397l.148-.015V66.478h-.117c-.065 0-4.148-1.47-9.075-3.267zm13.715 3.254L150.767 55a8577.52 8577.52 0 0 1-.598-11.515c0-.05.048-.076.143-.076.116 0 1.985 1.47 9.66 7.593 10.045 8.015 9.745 7.763 9.426 7.9-6.722 2.882-17.74 7.548-17.864 7.564-.093.012-.169.011-.169-.003z" fill="#fff"/>
</svg>
