<?xml version="1.0" encoding="UTF-8" standalone="no"?>
<!-- Created with Inkscape (http://www.inkscape.org/) -->

<svg
   xmlns:dc="http://purl.org/dc/elements/1.1/"
   xmlns:cc="http://creativecommons.org/ns#"
   xmlns:rdf="http://www.w3.org/1999/02/22-rdf-syntax-ns#"
   xmlns:svg="http://www.w3.org/2000/svg"
   xmlns="http://www.w3.org/2000/svg"
   xmlns:sodipodi="http://sodipodi.sourceforge.net/DTD/sodipodi-0.dtd"
   xmlns:inkscape="http://www.inkscape.org/namespaces/inkscape"
   width="36.320667mm"
   height="29.302446mm"
   viewBox="0 0 36.320667 29.302446"
   version="1.1"
   id="svg3283"
   inkscape:version="0.92.4 (5da689c313, 2019-01-14)"
   sodipodi:docname="stash.svg">
  <defs
     id="defs3277" />
  <sodipodi:namedview
     id="base"
     pagecolor="#ffffff"
     bordercolor="#666666"
     borderopacity="1.0"
     inkscape:pageopacity="0.0"
     inkscape:pageshadow="2"
     inkscape:zoom="3.959798"
     inkscape:cx="71.678055"
     inkscape:cy="1.5826869"
     inkscape:document-units="mm"
     inkscape:current-layer="layer1"
     showgrid="false"
     fit-margin-top="0"
     fit-margin-left="0"
     fit-margin-right="0"
     fit-margin-bottom="0"
     inkscape:window-width="2400"
     inkscape:window-height="1271"
     inkscape:window-x="-9"
     inkscape:window-y="-9"
     inkscape:window-maximized="1" />
  <metadata
     id="metadata3280">
    <rdf:RDF>
      <cc:Work
         rdf:about="">
        <dc:format>image/svg+xml</dc:format>
        <dc:type
           rdf:resource="http://purl.org/dc/dcmitype/StillImage" />
        <dc:title></dc:title>
      </cc:Work>
    </rdf:RDF>
  </metadata>
  <g
     inkscape:label="Layer 1"
     inkscape:groupmode="layer"
     id="layer1"
     transform="translate(-4.0230375,-3.8539286)">
    <g
       id="g4094"
       transform="matrix(1.0753113,0,0,0.95714545,-31.077834,-19.123919)"
       style="fill:#ffffff;fill-opacity:1;stroke:none;stroke-opacity:1">
      <path
         inkscape:connector-curvature="0"
         id="path3962"
         d="m 46.682099,45.973893 c -0.05098,0.0077 -0.11099,0.02591 -0.18474,0.05558 -0.07375,0.02965 -0.161204,0.07063 -0.267096,0.12367 -0.179123,0.08973 -0.425955,0.213258 -0.548515,0.274463 -0.122564,0.0612 -0.345005,0.153351 -0.494285,0.204756 -0.07387,0.02545 -0.137687,0.04454 -0.19793,0.05725 -0.06024,0.01275 -0.116919,0.01905 -0.176499,0.0191 -0.05958,1.9e-5 -0.122023,-0.0063 -0.19391,-0.019 -0.07189,-0.0127 -0.153192,-0.03166 -0.250358,-0.05705 -0.09427,-0.02465 -0.181948,-0.04001 -0.260731,-0.04646 -0.07878,-0.0065 -0.148687,-0.0042 -0.207436,0.0068 -0.02937,0.0054 -0.05597,0.01298 -0.07948,0.02255 -0.02353,0.0096 -0.04393,0.02129 -0.061,0.03497 -0.01709,0.01368 -0.03082,0.02932 -0.0409,0.04694 -0.01008,0.01765 -0.01648,0.03721 -0.019,0.05872 -0.0037,0.03035 0.0042,0.06551 0.02419,0.107535 0.02003,0.04202 0.05227,0.0909 0.09782,0.14878 0.07357,0.09346 0.119992,0.156862 0.17128,0.24567 0.05129,0.08881 0.107437,0.203014 0.20054,0.398133 0.0381,0.07982 0.07373,0.145479 0.109005,0.198598 0.0353,0.05312 0.07018,0.09369 0.106867,0.123535 0.0367,0.02983 0.07513,0.04892 0.117443,0.05893 0.0423,0.01 0.08851,0.01102 0.140679,0.0047 0.04501,-0.0055 0.08612,-0.01769 0.123339,-0.03656 0.03721,-0.01886 0.07059,-0.04435 0.100233,-0.07667 v -6.5e-5 c 0.04882,-0.05319 0.147234,-0.177139 0.218688,-0.275467 0.03572,-0.04916 0.09375,-0.113067 0.158552,-0.176364 0.0648,-0.0633 0.136337,-0.12601 0.198933,-0.172886 0.110547,-0.08279 0.198313,-0.142136 0.312025,-0.204891 0.113712,-0.06276 0.253378,-0.128909 0.467635,-0.225383 0.22198,-0.09995 0.396985,-0.18425 0.525483,-0.253098 0.06425,-0.03441 0.11691,-0.065 0.157955,-0.09173 0.04104,-0.02675 0.0705,-0.04965 0.08845,-0.06876 0.0332,-0.0353 0.05082,-0.05871 0.05591,-0.08617 0.0051,-0.02745 -0.0023,-0.059 -0.01942,-0.110682 -0.0106,-0.03217 -0.03151,-0.0722 -0.05671,-0.110817 -0.02517,-0.03861 -0.05464,-0.07581 -0.08223,-0.102245 -0.03352,-0.03212 -0.06669,-0.05496 -0.104252,-0.0679 -0.03758,-0.01293 -0.07953,-0.01597 -0.130501,-0.0083 z"
         style="opacity:1;fill:#ffffff;fill-opacity:1;stroke:none;stroke-width:0.1722005;stroke-linecap:round;stroke-linejoin:round;stroke-miterlimit:0.2;stroke-dasharray:none;stroke-opacity:1" />
      <path
         inkscape:connector-curvature="0"
         id="path3960"
         d="m 52.602785,45.843056 c -0.03054,-0.0074 -0.06054,-0.006 -0.08999,0.0042 -0.02946,0.01027 -0.05833,0.02946 -0.08664,0.05738 -0.02829,0.02797 -0.05605,0.06474 -0.08316,0.11028 -0.02713,0.04552 -0.05363,0.09985 -0.07948,0.162909 -0.03978,0.09707 -0.05969,0.146585 -0.06153,0.177974 -9.34e-4,0.01569 0.0028,0.02685 0.01055,0.03717 0.0079,0.01032 0.02017,0.0197 0.03651,0.03203 0.03838,0.02885 0.219514,0.125038 0.428668,0.230533 0.20915,0.105499 0.446284,0.220345 0.596591,0.286649 0.120916,0.05334 0.248196,0.118446 0.375032,0.190763 0.126841,0.07231 0.253252,0.151847 0.372557,0.233885 0.119305,0.08203 0.231453,0.166578 0.329766,0.249083 0.09831,0.0825 0.182808,0.162978 0.246674,0.236696 0.06885,0.07947 0.132154,0.144456 0.191431,0.195651 0.05928,0.05119 0.114533,0.08857 0.167128,0.112825 0.02629,0.01214 0.0519,0.02101 0.07707,0.02666 0.02517,0.0057 0.04992,0.008 0.07432,0.0074 0.02442,-4.67e-4 0.04846,-0.0047 0.07245,-0.0113 0.024,-0.0068 0.04789,-0.01671 0.07185,-0.02951 0.01625,-0.0087 0.02862,-0.01667 0.03777,-0.02778 0.0091,-0.01111 0.01499,-0.02531 0.01816,-0.0466 0.0063,-0.04253 0.0019,-0.113198 -0.0088,-0.242724 l -0.02302,-0.279547 0.173488,-0.194045 c 0.06988,-0.07816 0.11324,-0.132621 0.139138,-0.179848 0.01293,-0.02362 0.02157,-0.04543 0.02689,-0.06749 0.0053,-0.02204 0.0074,-0.0444 0.0074,-0.06903 0,-0.05014 -0.0063,-0.09032 -0.02372,-0.122532 -0.0087,-0.01611 -0.02008,-0.03025 -0.03483,-0.04258 -0.01475,-0.01233 -0.03287,-0.02288 -0.05484,-0.03194 -0.04398,-0.01812 -0.103585,-0.03011 -0.183465,-0.03796 -0.07988,-0.0078 -0.180067,-0.01153 -0.305129,-0.01293 -0.110574,-0.0014 -0.201492,-0.0037 -0.28042,-0.0096 -0.07892,-0.0057 -0.145853,-0.01443 -0.20837,-0.02787 -0.06252,-0.01345 -0.120631,-0.03156 -0.181995,-0.05605 -0.06136,-0.02446 -0.125958,-0.05529 -0.201408,-0.09407 -0.103706,-0.05331 -0.350538,-0.176752 -0.54852,-0.274262 -0.197981,-0.09751 -0.383104,-0.196048 -0.411388,-0.21902 -0.03581,-0.02909 -0.155373,-0.0913 -0.279552,-0.149583 -0.124175,-0.05828 -0.252949,-0.112596 -0.307267,-0.125813 z"
         style="opacity:1;fill:#ffffff;fill-opacity:1;stroke:none;stroke-width:0.1722005;stroke-linecap:round;stroke-linejoin:round;stroke-miterlimit:0.2;stroke-dasharray:none;stroke-opacity:1" />
      <path
         inkscape:connector-curvature="0"
         id="path3958"
         d="m 49.849275,45.414995 c -0.05848,0 -0.107586,0.0028 -0.14905,0.0095 -0.04146,0.0066 -0.07527,0.01704 -0.103048,0.03212 -0.02778,0.01508 -0.04954,0.03478 -0.06696,0.06013 -0.01742,0.02535 -0.03044,0.05627 -0.04085,0.09367 -0.01625,0.05848 -0.02745,0.106755 -0.0332,0.146904 -0.0057,0.04015 -0.0061,0.07221 -4.01e-4,0.09816 0.0056,0.02596 0.01723,0.04585 0.03516,0.06173 0.01793,0.01588 0.04221,0.02778 0.07332,0.03777 0.06902,0.02213 0.136365,0.03469 0.193443,0.03731 0.02853,0.0014 0.05454,1.26e-4 0.07687,-0.0037 0.02232,-0.0037 0.04099,-0.01009 0.05497,-0.01896 0.0106,-0.0067 0.02288,-0.03016 0.03534,-0.06388 0.01247,-0.03371 0.02517,-0.07776 0.03651,-0.125748 0.02264,-0.09596 0.03997,-0.207664 0.03997,-0.284099 0,-0.01826 -9.34e-4,-0.03245 -0.0047,-0.04347 -0.0037,-0.01102 -0.0097,-0.01886 -0.02017,-0.02442 -0.02087,-0.01111 -0.05893,-0.01312 -0.127419,-0.01312 z"
         style="opacity:1;fill:#ffffff;fill-opacity:1;stroke:none;stroke-width:0.1722005;stroke-linecap:round;stroke-linejoin:round;stroke-miterlimit:0.2;stroke-dasharray:none;stroke-opacity:1" />
      <path
         inkscape:connector-curvature="0"
         id="path3956"
         d="m 50.364249,45.280077 c -0.02405,-9.34e-4 -0.04768,0.0019 -0.07024,0.0088 -0.02255,0.0068 -0.04403,0.01737 -0.06381,0.03189 -0.0155,0.01135 -0.03077,0.04505 -0.04431,0.09099 -0.01359,0.04594 -0.02545,0.103991 -0.03413,0.163912 -0.0087,0.05993 -0.01419,0.121696 -0.01499,0.175029 -9.34e-4,0.05334 0.0033,0.09824 0.01312,0.124408 0.0076,0.01975 0.02601,0.0339 0.05116,0.04272 0.02517,0.0088 0.05697,0.01228 0.09126,0.0106 0.03427,-0.0019 0.07106,-0.0085 0.106059,-0.02031 0.03502,-0.01176 0.06823,-0.02853 0.09548,-0.04995 0.0198,-0.01559 0.03534,-0.02932 0.04754,-0.04398 0.01219,-0.01466 0.02096,-0.03016 0.02731,-0.04928 0.0127,-0.03824 0.01545,-0.09068 0.01545,-0.178978 0,-0.08456 -0.0028,-0.137047 -0.01405,-0.17396 -0.0055,-0.01844 -0.01307,-0.03306 -0.02325,-0.0458 -0.01013,-0.01275 -0.02288,-0.02367 -0.03889,-0.03488 -0.02302,-0.01611 -0.04694,-0.02848 -0.07111,-0.03702 -0.02419,-0.0085 -0.04856,-0.01321 -0.07258,-0.01415 z"
         style="opacity:1;fill:#ffffff;fill-opacity:1;stroke:none;stroke-width:0.1722005;stroke-linecap:round;stroke-linejoin:round;stroke-miterlimit:0.2;stroke-dasharray:none;stroke-opacity:1" />
      <path
         inkscape:connector-curvature="0"
         id="path3954"
         d="m 49.109993,45.214254 c -0.01849,-0.0033 -0.03702,-9.34e-4 -0.05685,0.0062 -0.01984,0.0073 -0.04095,0.01975 -0.06475,0.03717 -0.0134,0.0098 -0.02437,0.02101 -0.03348,0.03567 -0.0091,0.01471 -0.01634,0.03287 -0.02218,0.05678 -0.01167,0.04781 -0.01788,0.118339 -0.02293,0.228866 -0.0057,0.126897 -0.0075,0.196132 0.0014,0.240109 0.0047,0.02199 0.01167,0.03768 0.02236,0.05109 0.01069,0.01345 0.02488,0.02461 0.04337,0.03758 0.04267,0.02988 0.07751,0.0466 0.116976,0.05175 0.03945,0.0052 0.08352,-0.0014 0.144494,-0.0176 0.01788,-0.0048 0.03166,-0.0097 0.04225,-0.01816 0.0106,-0.0085 0.01802,-0.02054 0.02316,-0.03968 0.01032,-0.03833 0.01172,-0.105009 0.01172,-0.228059 0,-0.117022 -0.0023,-0.186029 -0.01419,-0.235757 -0.0059,-0.02489 -0.0141,-0.04491 -0.02545,-0.06374 -0.01134,-0.01882 -0.02591,-0.03651 -0.04445,-0.05651 -0.02381,-0.02568 -0.04491,-0.04543 -0.06475,-0.05966 -0.01984,-0.01424 -0.03833,-0.02283 -0.05684,-0.02605 z"
         style="opacity:1;fill:#ffffff;fill-opacity:1;stroke:none;stroke-width:0.1722005;stroke-linecap:round;stroke-linejoin:round;stroke-miterlimit:0.2;stroke-dasharray:none;stroke-opacity:1" />
      <path
         inkscape:connector-curvature="0"
         id="path3952"
         d="m 50.843935,45.102569 c -0.01517,-0.0014 -0.0297,9.34e-4 -0.04286,0.006 -0.01317,0.0053 -0.02503,0.01405 -0.03497,0.02647 -0.0099,0.01237 -0.01783,0.02848 -0.02325,0.04854 -0.01401,0.05224 -0.02082,0.157241 -0.02054,0.252767 1.35e-4,0.04776 0.0019,0.09314 0.0057,0.128358 0.0037,0.0352 0.0091,0.06027 0.01615,0.06736 0.0077,0.0077 0.0212,0.01321 0.03805,0.01681 0.01681,0.0037 0.03693,0.0052 0.05765,0.0048 0.04141,-9.34e-4 0.08534,-0.0096 0.110682,-0.02563 0.01639,-0.01041 0.0318,-0.02876 0.04534,-0.05196 0.01354,-0.02321 0.02517,-0.05127 0.03404,-0.08116 0.0089,-0.02988 0.01494,-0.06162 0.01732,-0.09207 0.0023,-0.03044 9.34e-4,-0.05962 -0.0048,-0.0845 -0.01195,-0.05034 -0.03399,-0.09395 -0.06093,-0.128559 -0.02694,-0.0346 -0.05883,-0.06023 -0.0906,-0.07452 -0.01587,-0.0071 -0.03175,-0.01144 -0.04694,-0.01265 z"
         style="opacity:1;fill:#ffffff;fill-opacity:1;stroke:none;stroke-width:0.1722005;stroke-linecap:round;stroke-linejoin:round;stroke-miterlimit:0.2;stroke-dasharray:none;stroke-opacity:1" />
      <path
         inkscape:connector-curvature="0"
         id="path3950"
         d="m 48.589996,45.015591 c -0.02036,0.0023 -0.04207,0.0078 -0.06495,0.01653 -0.02204,0.0084 -0.04146,0.02269 -0.05906,0.04478 -0.0176,0.02213 -0.03334,0.0521 -0.04801,0.09207 -0.01466,0.03997 -0.02825,0.08993 -0.04146,0.151856 -0.01321,0.06193 -0.02605,0.135843 -0.03931,0.223843 -0.0092,0.06061 -0.0068,0.111531 0.0042,0.151259 0.0056,0.01984 0.01345,0.03693 0.02316,0.05102 0.0097,0.01405 0.02134,0.02512 0.03455,0.03301 0.01321,0.0079 0.02801,0.01261 0.04407,0.01391 0.01606,0.0014 0.03334,-9.34e-4 0.05156,-0.0064 0.01826,-0.0057 0.0374,-0.0148 0.05718,-0.02778 0.0198,-0.01298 0.0402,-0.02965 0.06087,-0.05035 0.02274,-0.02274 0.04571,-0.05443 0.06434,-0.08705 0.01863,-0.03263 0.03296,-0.0662 0.03842,-0.09293 0.01097,-0.05348 0.03128,-0.143504 0.04515,-0.200072 0.01401,-0.05731 0.01765,-0.108899 0.01247,-0.152931 -0.0052,-0.04403 -0.01928,-0.08051 -0.04085,-0.10767 -0.01078,-0.01359 -0.02334,-0.02484 -0.03768,-0.03352 -0.01433,-0.0087 -0.03039,-0.0148 -0.04794,-0.01816 -0.01756,-0.0033 -0.03656,-0.0037 -0.05692,-0.0014 z"
         style="opacity:1;fill:#ffffff;fill-opacity:1;stroke:none;stroke-width:0.1722005;stroke-linecap:round;stroke-linejoin:round;stroke-miterlimit:0.2;stroke-dasharray:none;stroke-opacity:1" />
      <path
         inkscape:connector-curvature="0"
         id="path3948"
         d="m 51.235905,44.900759 c -0.02969,0 -0.05275,9.34e-4 -0.07111,0.0059 -0.01835,0.0048 -0.03193,0.01317 -0.04272,0.02778 -0.01074,0.01461 -0.01868,0.03544 -0.02559,0.06495 -0.0069,0.02951 -0.01284,0.06774 -0.01961,0.117247 -0.0087,0.06365 -0.01088,0.10498 -0.0033,0.137934 0.0076,0.03296 0.02479,0.05749 0.05504,0.08771 0.02255,0.02255 0.04146,0.0395 0.05859,0.05089 0.01714,0.01139 0.03245,0.01718 0.0476,0.01746 0.01517,2.94e-4 0.03025,-0.0049 0.04694,-0.01559 0.01671,-0.01074 0.03497,-0.02694 0.05665,-0.04861 0.01942,-0.01942 0.03432,-0.03754 0.04501,-0.05658 0.01065,-0.01905 0.01704,-0.03908 0.01942,-0.06241 0.0023,-0.02334 9.34e-4,-0.0499 -0.0047,-0.08215 -0.0054,-0.03226 -0.01461,-0.07015 -0.02731,-0.115972 -0.01536,-0.05536 -0.02773,-0.0875 -0.04694,-0.105793 -0.0096,-0.0092 -0.02092,-0.01489 -0.03516,-0.01826 -0.01424,-0.0033 -0.03147,-0.0047 -0.05283,-0.0047 z"
         style="opacity:1;fill:#ffffff;fill-opacity:1;stroke:none;stroke-width:0.1722005;stroke-linecap:round;stroke-linejoin:round;stroke-miterlimit:0.2;stroke-dasharray:none;stroke-opacity:1" />
      <path
         inkscape:connector-curvature="0"
         id="path3946"
         d="m 48.186241,44.839092 c -0.02012,0.0023 -0.03586,0.0055 -0.04888,0.01265 -0.01303,0.0071 -0.02335,0.0183 -0.03254,0.0367 -0.01835,0.03675 -0.03217,0.102441 -0.05423,0.222568 -0.02334,0.127102 -0.03483,0.193266 -0.03119,0.240646 0.0019,0.02367 0.0074,0.04263 0.01713,0.0622 0.0098,0.01956 0.02363,0.03973 0.04211,0.06569 0.03025,0.04249 0.05529,0.07235 0.07686,0.08812 0.01078,0.0079 0.02073,0.01219 0.03002,0.01284 0.0092,4.66e-4 0.01788,-0.0023 0.02605,-0.0093 0.01634,-0.01387 0.03095,-0.04333 0.04552,-0.08979 0.01457,-0.04646 0.02913,-0.109977 0.04538,-0.191968 0.02442,-0.122975 0.0373,-0.200647 0.0395,-0.256114 9.34e-4,-0.02773 -3.88e-4,-0.0499 -0.0047,-0.06937 -0.0042,-0.01947 -0.01074,-0.03628 -0.01984,-0.05323 -0.01587,-0.02965 -0.03287,-0.04937 -0.05384,-0.0608 -0.02096,-0.01144 -0.0459,-0.01452 -0.0776,-0.01083 z"
         style="opacity:1;fill:#ffffff;fill-opacity:1;stroke:none;stroke-width:0.1722005;stroke-linecap:round;stroke-linejoin:round;stroke-miterlimit:0.2;stroke-dasharray:none;stroke-opacity:1" />
      <path
         inkscape:connector-curvature="0"
         id="path3944"
         d="m 48.186241,44.839092 c 0.0317,-0.0037 0.05664,-4.67e-4 0.0776,0.01083 0.02096,0.01144 0.03796,0.03119 0.05384,0.0608 0.0091,0.01695 0.01573,0.03376 0.01984,0.05323 0.0042,0.01947 0.0056,0.04165 0.0047,0.06937 -0.0023,0.05547 -0.01508,0.133139 -0.0395,0.256114 -0.01629,0.08199 -0.03081,0.145507 -0.04538,0.191968 -0.01457,0.04646 -0.02918,0.07591 -0.04552,0.08979 -0.0082,0.007 -0.01681,0.0099 -0.02605,0.0093 -0.0092,-4.67e-4 -0.01924,-0.0049 -0.03002,-0.01284 -0.02157,-0.01578 -0.0466,-0.04561 -0.07686,-0.08812 -0.01849,-0.02596 -0.0324,-0.04613 -0.04211,-0.06569 -0.0098,-0.01956 -0.01531,-0.03852 -0.01714,-0.06221 -0.0037,-0.04738 0.0078,-0.113543 0.03119,-0.240645 0.02204,-0.120127 0.0359,-0.1858 0.05423,-0.222568 0.0092,-0.0184 0.01952,-0.02956 0.03254,-0.0367 0.01303,-0.0071 0.02876,-0.01032 0.04888,-0.01265 z"
         style="opacity:1;fill:#ffffff;fill-opacity:1;stroke:none;stroke-width:0.1722005;stroke-linecap:round;stroke-linejoin:round;stroke-miterlimit:0.2;stroke-dasharray:none;stroke-opacity:1" />
      <path
         inkscape:connector-curvature="0"
         id="path3942"
         d="m 47.869795,44.632058 c -0.0098,0.0033 -0.01751,0.01172 -0.02442,0.02619 -0.007,0.01443 -0.01307,0.03474 -0.01975,0.06134 -0.01284,0.05119 -0.05305,0.158347 -0.08939,0.238101 -0.0218,0.04789 -0.03801,0.08937 -0.04848,0.125277 -0.01051,0.0359 -0.01536,0.06619 -0.01447,0.09173 9.34e-4,0.02554 0.0075,0.04632 0.01984,0.06314 0.01233,0.01681 0.03035,0.02969 0.05417,0.03936 0.02927,0.01191 0.05479,0.01952 0.07747,0.02255 0.02269,0.0033 0.04253,0.0014 0.06033,-0.0049 0.01779,-0.0064 0.03352,-0.0177 0.04808,-0.03422 0.01457,-0.01648 0.02797,-0.03824 0.04099,-0.06542 0.01303,-0.02717 0.0254,-0.07287 0.03474,-0.124539 0.0094,-0.05167 0.01578,-0.109299 0.01695,-0.160499 0.0019,-0.07393 -4.67e-4,-0.123012 -0.01004,-0.158421 -0.0047,-0.0177 -0.01111,-0.03198 -0.0197,-0.04426 -0.0086,-0.01228 -0.01933,-0.0226 -0.03254,-0.03226 -0.0232,-0.017 -0.04174,-0.02937 -0.05691,-0.0367 -0.01517,-0.0073 -0.02703,-0.0096 -0.03684,-0.0065 z"
         style="opacity:1;fill:#ffffff;fill-opacity:1;stroke:none;stroke-width:0.1722005;stroke-linecap:round;stroke-linejoin:round;stroke-miterlimit:0.2;stroke-dasharray:none;stroke-opacity:1" />
      <path
         inkscape:connector-curvature="0"
         id="path3940"
         d="m 47.869795,44.632058 c 0.0098,-0.0033 0.02162,-9.34e-4 0.03684,0.0065 0.01517,0.0073 0.03371,0.0197 0.05691,0.0367 0.01321,0.0097 0.02395,0.01998 0.03254,0.03226 0.0086,0.01228 0.01499,0.02657 0.0197,0.04426 0.0094,0.03539 0.01177,0.08449 0.01004,0.158421 -0.0014,0.0512 -0.0076,0.108828 -0.01695,0.160499 -0.0094,0.05167 -0.02171,0.09735 -0.03474,0.124539 -0.01303,0.02717 -0.02643,0.04892 -0.04099,0.06542 -0.01457,0.01648 -0.0303,0.02778 -0.04808,0.03422 -0.01779,0.0064 -0.03763,0.0079 -0.06033,0.0049 -0.02269,-0.0033 -0.04822,-0.01064 -0.07747,-0.02255 -0.02381,-0.0097 -0.04183,-0.02255 -0.05417,-0.03936 -0.01233,-0.01681 -0.01891,-0.03758 -0.01984,-0.06314 -9.34e-4,-0.02554 0.0037,-0.05583 0.01447,-0.09173 0.01051,-0.0359 0.02666,-0.07739 0.04848,-0.125277 0.03632,-0.07975 0.07654,-0.186906 0.08939,-0.238101 0.0067,-0.02657 0.01279,-0.04689 0.01975,-0.06134 0.007,-0.01443 0.01466,-0.02302 0.02442,-0.02619 z"
         style="opacity:1;fill:#ffffff;fill-opacity:1;stroke:none;stroke-width:0.1722005;stroke-linecap:round;stroke-linejoin:round;stroke-miterlimit:0.2;stroke-dasharray:none;stroke-opacity:1" />
      <path
         inkscape:connector-curvature="0"
         id="path3938"
         d="m 49.798786,44.468141 c -0.01863,-0.0028 -0.03885,-0.0019 -0.06053,0.0028 -0.02171,0.0047 -0.04492,0.01284 -0.06964,0.0247 -0.03259,0.01564 -0.06019,0.03474 -0.08323,0.05853 -0.02306,0.02376 -0.04155,0.05217 -0.05597,0.08637 -0.01443,0.03418 -0.02479,0.0742 -0.03161,0.121126 -0.0068,0.04692 -0.01004,0.100774 -0.01018,0.162707 -1.96e-4,0.09074 0.0023,0.145797 0.0134,0.183998 0.0055,0.0191 0.01307,0.03399 0.02334,0.04701 0.01032,0.01303 0.02334,0.02418 0.03983,0.03581 0.02092,0.0148 0.04375,0.02512 0.06817,0.03091 0.02442,0.0058 0.05042,0.0072 0.07787,0.0042 0.02745,-0.0033 0.0563,-0.0106 0.08631,-0.02255 0.03002,-0.01195 0.06122,-0.02839 0.09334,-0.04915 0.01639,-0.0106 0.02932,-0.02087 0.03964,-0.03301 0.01032,-0.01214 0.01797,-0.02615 0.02349,-0.04412 0.01111,-0.03595 0.01401,-0.08778 0.01401,-0.172549 0,-0.09159 -0.0063,-0.168917 -0.01882,-0.231878 -0.01251,-0.06296 -0.03123,-0.111508 -0.05618,-0.145698 -0.01247,-0.01709 -0.02652,-0.03063 -0.04207,-0.04053 -0.01555,-0.0099 -0.03259,-0.01615 -0.05122,-0.01882 z"
         style="opacity:1;fill:#ffffff;fill-opacity:1;stroke:none;stroke-width:0.1722005;stroke-linecap:round;stroke-linejoin:round;stroke-miterlimit:0.2;stroke-dasharray:none;stroke-opacity:1" />
      <path
         inkscape:connector-curvature="0"
         id="path3936"
         d="m 49.798786,44.468141 c 0.01863,0.0028 0.03567,0.0089 0.05122,0.01882 0.01555,0.0099 0.0296,0.02344 0.04207,0.04053 0.02493,0.03418 0.04366,0.08274 0.05618,0.145698 0.01251,0.06296 0.01882,0.140283 0.01882,0.231878 0,0.08477 -0.0028,0.136613 -0.01401,0.17255 -0.0056,0.01797 -0.01321,0.03198 -0.02349,0.04412 -0.01032,0.01214 -0.02325,0.02241 -0.03964,0.03301 -0.03212,0.02078 -0.06333,0.03717 -0.09334,0.04915 -0.03002,0.01195 -0.05886,0.01947 -0.08631,0.02255 -0.02745,0.0033 -0.05345,0.0019 -0.07787,-0.0042 -0.02442,-0.0058 -0.04723,-0.01611 -0.06817,-0.03091 -0.01648,-0.01167 -0.02955,-0.02278 -0.03983,-0.03581 -0.01032,-0.01303 -0.01788,-0.02792 -0.02334,-0.04701 -0.01097,-0.03819 -0.01359,-0.09326 -0.0134,-0.183998 1.49e-4,-0.06193 0.0033,-0.11579 0.01018,-0.162708 0.0068,-0.04692 0.01718,-0.08693 0.03161,-0.121126 0.01443,-0.03422 0.03292,-0.0626 0.05598,-0.08637 0.02306,-0.02377 0.05062,-0.04291 0.08323,-0.05853 0.02474,-0.01186 0.04794,-0.02012 0.06964,-0.0247 0.02171,-0.0047 0.04193,-0.0056 0.06053,-0.0028 z"
         style="opacity:1;fill:#ffffff;fill-opacity:1;stroke:none;stroke-width:0.1722005;stroke-linecap:round;stroke-linejoin:round;stroke-miterlimit:0.2;stroke-dasharray:none;stroke-opacity:1" />
      <path
         inkscape:connector-curvature="0"
         id="path3934"
         d="m 49.139454,44.435402 c -0.0339,-0.0028 -0.06819,0.0042 -0.116173,0.01994 -0.03091,0.01022 -0.05548,0.02129 -0.07526,0.0367 -0.0198,0.01541 -0.03474,0.03516 -0.04631,0.06288 -0.01163,0.02769 -0.01984,0.06331 -0.02624,0.110345 -0.0064,0.04704 -0.01097,0.105537 -0.01513,0.178979 -0.0019,0.02965 -0.0023,0.05314 -4.06e-4,0.07265 0.0019,0.01952 0.0061,0.03506 0.01382,0.04874 0.0078,0.01368 0.01905,0.02554 0.03516,0.03768 0.01611,0.01219 0.03707,0.02461 0.06401,0.03959 0.03586,0.01989 0.07237,0.03371 0.108403,0.04165 0.03604,0.0079 0.07155,0.0099 0.105326,0.0062 0.03376,-0.0037 0.06582,-0.01335 0.09488,-0.02857 0.02909,-0.01522 0.05518,-0.03609 0.07707,-0.06247 0.01536,-0.01849 0.02829,-0.04982 0.03824,-0.08758 0.0099,-0.03777 0.01685,-0.08199 0.02036,-0.126215 0.0033,-0.04422 0.0033,-0.08845 -4.67e-4,-0.126346 -0.0037,-0.03791 -0.01195,-0.06946 -0.02437,-0.08825 -0.01387,-0.02092 -0.07623,-0.06423 -0.138667,-0.09622 -0.04664,-0.0239 -0.08025,-0.03675 -0.114165,-0.03964 z"
         style="opacity:1;fill:#ffffff;fill-opacity:1;stroke:none;stroke-width:0.1722005;stroke-linecap:round;stroke-linejoin:round;stroke-miterlimit:0.2;stroke-dasharray:none;stroke-opacity:1" />
      <path
         inkscape:connector-curvature="0"
         id="path3932"
         d="m 49.139454,44.435402 c 0.0339,0.0028 0.06752,0.01573 0.114164,0.03964 0.06243,0.03198 0.124815,0.07528 0.138667,0.09622 0.01242,0.01877 0.0204,0.05035 0.02437,0.08825 0.0037,0.03791 0.0037,0.08212 4.67e-4,0.126346 -0.0033,0.04421 -0.01041,0.08845 -0.02036,0.126215 -0.0099,0.03777 -0.02288,0.06907 -0.03824,0.08758 -0.0219,0.02638 -0.04801,0.04725 -0.07707,0.06247 -0.02904,0.01522 -0.0611,0.02479 -0.09488,0.02857 -0.03376,0.0037 -0.06929,0.0019 -0.105327,-0.0062 -0.03604,-0.0079 -0.07256,-0.02176 -0.108403,-0.04165 -0.02694,-0.01494 -0.04789,-0.02741 -0.06401,-0.03959 -0.01611,-0.01214 -0.02741,-0.024 -0.03516,-0.03768 -0.0077,-0.01368 -0.012,-0.02923 -0.01382,-0.04874 -0.0019,-0.01952 -0.0014,-0.043 4.06e-4,-0.07265 0.0042,-0.07344 0.0087,-0.13194 0.01513,-0.178979 0.0064,-0.04704 0.01461,-0.08265 0.02624,-0.110345 0.01163,-0.02769 0.02657,-0.04746 0.04632,-0.06288 0.0198,-0.01541 0.04436,-0.02647 0.07526,-0.0367 0.04798,-0.01583 0.08226,-0.02283 0.116172,-0.01994 z"
         style="opacity:1;fill:#ffffff;fill-opacity:1;stroke:none;stroke-width:0.1722005;stroke-linecap:round;stroke-linejoin:round;stroke-miterlimit:0.2;stroke-dasharray:none;stroke-opacity:1" />
      <path
         inkscape:connector-curvature="0"
         id="path3930"
         d="m 47.69979,44.427432 c -0.02204,-0.0023 -0.04319,-3.92e-4 -0.06314,0.0056 -0.01998,0.006 -0.03875,0.01592 -0.05605,0.02899 -0.01728,0.01307 -0.03301,0.02937 -0.04694,0.04801 -0.01391,0.01868 -0.02601,0.03973 -0.0359,0.06247 -0.0198,0.04547 -0.03095,0.0976 -0.03082,0.150391 7e-5,0.02638 0.0028,0.05297 0.009,0.07894 0.006,0.02596 0.01527,0.05134 0.02792,0.07539 0.02199,0.04174 0.04319,0.07133 0.06408,0.08852 0.01046,0.0086 0.02082,0.01405 0.03114,0.01648 0.01032,0.0023 0.02059,0.0019 0.03086,-0.0019 0.02054,-0.0077 0.04113,-0.02787 0.06214,-0.06066 0.02101,-0.03282 0.04244,-0.07822 0.06468,-0.136459 0.01989,-0.05212 0.03352,-0.09962 0.0409,-0.141683 0.0074,-0.04207 0.0086,-0.0787 0.0037,-0.109277 -0.0049,-0.03058 -0.01592,-0.05511 -0.03287,-0.07278 -0.01695,-0.01765 -0.03992,-0.02853 -0.0687,-0.03189 z"
         style="opacity:1;fill:#ffffff;fill-opacity:1;stroke:none;stroke-width:0.1722005;stroke-linecap:round;stroke-linejoin:round;stroke-miterlimit:0.2;stroke-dasharray:none;stroke-opacity:1" />
      <path
         inkscape:connector-curvature="0"
         id="path3928"
         d="m 47.69979,44.427432 c 0.02881,0.0033 0.05174,0.01419 0.0687,0.03189 0.01695,0.01769 0.02797,0.04221 0.03287,0.07278 0.0049,0.03058 0.0037,0.06721 -0.0037,0.109276 -0.0074,0.04207 -0.02101,0.08956 -0.0409,0.141684 -0.02222,0.05823 -0.04366,0.103655 -0.06468,0.136458 -0.02101,0.03282 -0.04155,0.053 -0.06214,0.06066 -0.01027,0.0037 -0.02054,0.0047 -0.03086,0.0019 -0.01032,-0.0023 -0.02068,-0.0079 -0.03114,-0.01648 -0.02087,-0.01718 -0.04211,-0.04676 -0.06408,-0.08852 -0.01265,-0.02405 -0.0219,-0.04942 -0.02792,-0.07539 -0.006,-0.02596 -0.0089,-0.05255 -0.009,-0.07894 -1.44e-4,-0.05279 0.01097,-0.104911 0.03082,-0.150391 0.0099,-0.02274 0.02199,-0.04379 0.0359,-0.06247 0.01391,-0.01868 0.02965,-0.03492 0.04694,-0.04801 0.01727,-0.01307 0.03604,-0.02297 0.05605,-0.02899 0.01998,-0.006 0.04113,-0.0082 0.06314,-0.0056 z"
         style="opacity:1;fill:#ffffff;fill-opacity:1;stroke:none;stroke-width:0.1722005;stroke-linecap:round;stroke-linejoin:round;stroke-miterlimit:0.2;stroke-dasharray:none;stroke-opacity:1" />
      <path
         inkscape:connector-curvature="0"
         id="path3926"
         d="m 51.588507,44.421274 c -0.02171,-1.63e-4 -0.04174,0.0098 -0.05959,0.02843 -0.01784,0.01868 -0.03352,0.04613 -0.04646,0.08088 -0.01293,0.03478 -0.02311,0.07693 -0.03011,0.125076 -0.007,0.04814 -0.01083,0.102259 -0.01093,0.161036 -6.5e-5,0.05667 0.0089,0.103819 0.02395,0.139942 0.01508,0.03614 0.03623,0.06121 0.0606,0.07379 0.01219,0.0063 0.02521,0.0095 0.03866,0.0093 0.01345,-1.63e-4 0.02731,-0.0037 0.04123,-0.01064 0.01391,-0.007 0.02792,-0.01746 0.04165,-0.03166 0.01373,-0.01419 0.02713,-0.03208 0.03992,-0.05383 0.01569,-0.02675 0.02801,-0.06867 0.03684,-0.117111 0.0088,-0.04843 0.01401,-0.103393 0.01545,-0.156278 0.0014,-0.05289 -9.33e-4,-0.103678 -0.0073,-0.143757 -0.0064,-0.04006 -0.01681,-0.06947 -0.03147,-0.07948 -0.02031,-0.01387 -0.07089,-0.02544 -0.112423,-0.02573 z"
         style="opacity:1;fill:#ffffff;fill-opacity:1;stroke:none;stroke-width:0.1722005;stroke-linecap:round;stroke-linejoin:round;stroke-miterlimit:0.2;stroke-dasharray:none;stroke-opacity:1" />
      <path
         inkscape:connector-curvature="0"
         id="path3924"
         d="m 51.588507,44.421274 c 0.04155,2.9e-4 0.09212,0.01186 0.112423,0.02573 0.01466,0.01 0.02507,0.03941 0.03147,0.07948 0.0064,0.04006 0.0087,0.09087 0.0073,0.143756 -0.0014,0.05289 -0.0067,0.107843 -0.01545,0.156279 -0.0088,0.04844 -0.02115,0.09038 -0.03684,0.11711 -0.01279,0.02176 -0.02619,0.03964 -0.03992,0.05383 -0.01373,0.01419 -0.02769,0.0247 -0.04165,0.03166 -0.01396,0.007 -0.02783,0.01046 -0.04123,0.01064 -0.01345,1.63e-4 -0.02643,-0.0028 -0.03866,-0.0093 -0.02437,-0.01256 -0.04552,-0.03768 -0.0606,-0.07379 -0.01508,-0.03614 -0.02405,-0.08328 -0.02395,-0.139942 8e-5,-0.05878 0.0037,-0.112895 0.01093,-0.161036 0.007,-0.04814 0.01718,-0.0903 0.03012,-0.125076 0.01293,-0.03478 0.02862,-0.06221 0.04646,-0.08088 0.01783,-0.01868 0.03786,-0.02862 0.05959,-0.02843 z"
         style="opacity:1;fill:#ffffff;fill-opacity:1;stroke:none;stroke-width:0.1722005;stroke-linecap:round;stroke-linejoin:round;stroke-miterlimit:0.2;stroke-dasharray:none;stroke-opacity:1" />
      <path
         inkscape:connector-curvature="0"
         id="path3922"
         d="m 50.311285,44.322176 c -0.02493,0.0037 -0.04919,0.01298 -0.07212,0.02741 -0.02292,0.01438 -0.04449,0.03399 -0.06394,0.05872 -0.01214,0.01545 -0.02288,0.03656 -0.03222,0.06187 -0.0093,0.02535 -0.01723,0.05486 -0.02372,0.08704 -0.01293,0.06437 -0.02003,0.139401 -0.02124,0.212861 -0.0014,0.07346 0.0037,0.145344 0.01452,0.203486 0.0055,0.02909 0.01251,0.05473 0.0211,0.07539 0.0086,0.02068 0.01872,0.03632 0.03044,0.04552 0.0155,0.01214 0.03815,0.02054 0.06421,0.02535 0.0261,0.0048 0.05559,0.0061 0.08497,0.0042 0.02937,-0.0019 0.05861,-0.0074 0.08404,-0.01573 0.02545,-0.0084 0.04706,-0.0198 0.06127,-0.03404 0.0085,-0.0085 0.01826,-0.05184 0.02713,-0.114833 0.0089,-0.06298 0.01695,-0.145619 0.0219,-0.232676 0.008,-0.140109 0.01069,-0.220574 0.0042,-0.271115 -0.0033,-0.02526 -0.0085,-0.04305 -0.01662,-0.05704 -0.0081,-0.01401 -0.01886,-0.02428 -0.03282,-0.0345 -0.02456,-0.01793 -0.04992,-0.03035 -0.07539,-0.03731 -0.02549,-0.007 -0.05107,-0.0084 -0.076,-0.0047 z"
         style="opacity:1;fill:#ffffff;fill-opacity:1;stroke:none;stroke-width:0.1722005;stroke-linecap:round;stroke-linejoin:round;stroke-miterlimit:0.2;stroke-dasharray:none;stroke-opacity:1" />
      <path
         inkscape:connector-curvature="0"
         id="path3920"
         d="m 50.311285,44.322176 c 0.02493,-0.0037 0.05052,-0.0023 0.076,0.0047 0.02549,0.007 0.05085,0.01933 0.07539,0.03731 0.01396,0.01018 0.02475,0.02045 0.03282,0.0345 0.0081,0.01401 0.01349,0.0318 0.01662,0.05704 0.0063,0.05054 0.0037,0.131006 -0.0042,0.271115 -0.0049,0.08706 -0.01303,0.169693 -0.0219,0.232676 -0.0089,0.06299 -0.01863,0.106326 -0.02713,0.114833 -0.01419,0.01419 -0.03586,0.02563 -0.06127,0.03404 -0.02545,0.0084 -0.05465,0.01373 -0.08404,0.01573 -0.02937,0.0019 -0.05889,9.33e-4 -0.08497,-0.0042 -0.02605,-0.0048 -0.04871,-0.01321 -0.06421,-0.02535 -0.01172,-0.0092 -0.0219,-0.02488 -0.03044,-0.04552 -0.0086,-0.02068 -0.01559,-0.04632 -0.0211,-0.07539 -0.01097,-0.05814 -0.01573,-0.130025 -0.01452,-0.203486 0.0014,-0.07346 0.0083,-0.148495 0.02124,-0.212861 0.0064,-0.03217 0.01438,-0.06171 0.02372,-0.08704 0.0093,-0.02535 0.02008,-0.04646 0.03222,-0.06187 0.01942,-0.0247 0.04104,-0.04436 0.06394,-0.05872 0.02292,-0.01438 0.04718,-0.02353 0.07212,-0.02741 z m 0.53265,0.780393 c 0.01517,0.0014 0.03105,0.0055 0.04694,0.01265 0.03175,0.01429 0.06363,0.03992 0.0906,0.07452 0.02694,0.0346 0.04899,0.07822 0.06093,0.128559 0.0059,0.02489 0.0072,0.05406 0.0048,0.0845 -0.0023,0.03044 -0.0085,0.06218 -0.01732,0.09207 -0.0089,0.02988 -0.0205,0.05794 -0.03404,0.08115 -0.01354,0.02321 -0.02895,0.04155 -0.04533,0.05196 0,0 0,0 0,0 -0.02535,0.01611 -0.06926,0.02484 -0.110681,0.02563 -0.02073,4.11e-4 -0.04081,-0.0014 -0.05765,-0.0048 -0.01681,-0.0037 -0.03039,-0.0092 -0.03805,-0.01681 -0.0071,-0.0071 -0.01251,-0.03212 -0.01615,-0.06736 -0.0037,-0.0352 -0.0056,-0.08059 -0.0057,-0.128358 -2.71e-4,-0.09553 0.0065,-0.20053 0.02054,-0.252766 0.0054,-0.02008 0.01331,-0.03614 0.02325,-0.04854 0.0099,-0.01242 0.02176,-0.02115 0.03497,-0.02647 0.01317,-0.0053 0.02769,-0.0072 0.04286,-0.006 z m -1.733942,0.111685 c 0.01849,0.0033 0.03702,0.01181 0.05684,0.02605 0.01984,0.01424 0.04095,0.03399 0.06475,0.05966 0.01853,0.02003 0.0331,0.03768 0.04445,0.05651 0.01134,0.01886 0.01956,0.03889 0.02544,0.06374 0.01177,0.04973 0.01419,0.118735 0.01419,0.235757 0,0.12305 -0.0014,0.189736 -0.01172,0.228059 -0.0052,0.01914 -0.01256,0.03124 -0.02316,0.03969 -0.0106,0.0085 -0.02437,0.01335 -0.04225,0.01816 -0.06098,0.01634 -0.105032,0.02278 -0.144494,0.0176 -0.03945,-0.0051 -0.07432,-0.0219 -0.116975,-0.05175 -0.01849,-0.01298 -0.03273,-0.02414 -0.04337,-0.03758 -0.01069,-0.0134 -0.01788,-0.02909 -0.02236,-0.05109 -0.009,-0.04398 -0.0072,-0.113212 -0.0014,-0.240108 0.005,-0.110528 0.0112,-0.181057 0.02292,-0.228867 0.0058,-0.0239 0.01307,-0.04207 0.02218,-0.05678 0.0091,-0.01471 0.02008,-0.02591 0.03348,-0.03567 0.02376,-0.01737 0.04492,-0.02983 0.06475,-0.03717 0.01984,-0.0073 0.03833,-0.0094 0.05685,-0.0062 z m 1.254256,0.06582 c 0.024,9.34e-4 0.04841,0.0056 0.07258,0.01415 0.02418,0.0085 0.04811,0.02092 0.07111,0.03702 0.01601,0.01121 0.02876,0.02213 0.03889,0.03488 0.01013,0.01275 0.01769,0.02736 0.02325,0.0458 0.01107,0.03693 0.01405,0.0894 0.01405,0.17396 0,0.08829 -0.0028,0.140763 -0.01545,0.178979 -0.0063,0.0191 -0.01513,0.03464 -0.02731,0.04928 -0.01219,0.01466 -0.02773,0.02839 -0.04754,0.04398 -0.02727,0.02143 -0.06049,0.03819 -0.09548,0.04995 -0.03502,0.01176 -0.07177,0.01858 -0.106059,0.02031 -0.03427,0.0019 -0.06612,-0.0019 -0.09126,-0.0106 -0.02517,-0.0088 -0.04356,-0.02297 -0.05116,-0.04272 -0.01004,-0.02615 -0.01396,-0.07107 -0.01312,-0.124408 9.34e-4,-0.05333 0.0063,-0.115103 0.01499,-0.175029 0.0087,-0.05992 0.02059,-0.117988 0.03413,-0.163912 0.01359,-0.04594 0.02885,-0.07966 0.04431,-0.09099 0.0198,-0.01447 0.04123,-0.02512 0.06381,-0.03189 0.02255,-0.0068 0.04622,-0.0097 0.07024,-0.0088 z m -0.514974,0.134918 c 0.06849,0 0.106531,0.0019 0.12742,0.01312 0.01046,0.0056 0.01662,0.0134 0.02017,0.02442 0.0037,0.01102 0.0047,0.02521 0.0047,0.04347 0,0.07644 -0.01732,0.188139 -0.03997,0.284099 -0.01135,0.04798 -0.02405,0.09202 -0.03651,0.125748 -0.01247,0.03376 -0.02475,0.05714 -0.03534,0.06388 -0.01396,0.0089 -0.03264,0.01522 -0.05497,0.01896 -0.02232,0.0037 -0.04833,0.0049 -0.07687,0.0037 -0.05708,-0.0028 -0.124418,-0.01517 -0.193443,-0.03731 -0.03114,-0.01 -0.05539,-0.02185 -0.07332,-0.03777 -0.01793,-0.01592 -0.02951,-0.03576 -0.03516,-0.06173 -0.0057,-0.02596 -0.0054,-0.05801 4.01e-4,-0.09816 0.0057,-0.04015 0.01695,-0.08842 0.0332,-0.146904 0.01037,-0.0374 0.02344,-0.06833 0.04085,-0.09367 0.01741,-0.02535 0.03917,-0.04506 0.06696,-0.06013 0.02778,-0.01508 0.06158,-0.02549 0.103048,-0.03212 0.04146,-0.0066 0.09057,-0.0095 0.149051,-0.0095 z"
         style="opacity:1;fill:#ffffff;fill-opacity:1;stroke:none;stroke-width:0.1722005;stroke-linecap:round;stroke-linejoin:round;stroke-miterlimit:0.2;stroke-dasharray:none;stroke-opacity:1" />
      <path
         inkscape:connector-curvature="0"
         id="path3918"
         d="m 48.574462,44.316686 c -0.01741,-4.21e-4 -0.0339,0.0028 -0.04908,0.0099 -0.01517,0.007 -0.02904,0.01751 -0.04137,0.03161 -0.01233,0.01405 -0.02311,0.03166 -0.03194,0.05256 -0.01765,0.04179 -0.02773,0.09696 -0.02773,0.164314 0,0.06427 0.01013,0.121546 0.02778,0.169472 0.01765,0.04792 0.04281,0.08645 0.07271,0.113227 0.01494,0.0134 0.03114,0.02386 0.04815,0.03105 0.01704,0.0072 0.03488,0.01111 0.0533,0.01153 0.0184,4.06e-4 0.0373,-0.0028 0.05645,-0.0097 0.01914,-0.007 0.03847,-0.01774 0.05765,-0.03273 0.01508,-0.01177 0.03128,-0.03833 0.04524,-0.07158 0.01401,-0.03324 0.02577,-0.07318 0.03194,-0.111821 0.0096,-0.06017 0.01195,-0.09919 0.0023,-0.134717 -0.0098,-0.03553 -0.0317,-0.06758 -0.07064,-0.113829 -0.02045,-0.02428 -0.04081,-0.0444 -0.06086,-0.06047 -0.02008,-0.01606 -0.03983,-0.02806 -0.05886,-0.03614 -0.01905,-0.0081 -0.03749,-0.01223 -0.05491,-0.01265 z"
         style="opacity:1;fill:#ffffff;fill-opacity:1;stroke:none;stroke-width:0.1722005;stroke-linecap:round;stroke-linejoin:round;stroke-miterlimit:0.2;stroke-dasharray:none;stroke-opacity:1" />
      <path
         inkscape:connector-curvature="0"
         id="path3916"
         d="m 48.574462,44.316686 c 0.01741,4.15e-4 0.03586,0.0047 0.05491,0.01265 0.01905,0.0081 0.0388,0.02012 0.05886,0.03614 0.02008,0.01606 0.04043,0.03618 0.06086,0.06047 0.03889,0.04627 0.06085,0.0783 0.07064,0.113829 0.0098,0.03553 0.0075,0.07454 -0.0023,0.134717 -0.0062,0.03866 -0.01793,0.07858 -0.03194,0.111821 -0.01401,0.03324 -0.03016,0.05979 -0.04524,0.07157 -0.01919,0.01499 -0.03852,0.02577 -0.05765,0.03273 -0.01914,0.007 -0.03805,0.01013 -0.05645,0.0097 -0.0184,-4.11e-4 -0.03628,-0.0042 -0.0533,-0.01153 -0.01704,-0.0072 -0.0332,-0.0177 -0.04815,-0.03105 -0.02993,-0.02675 -0.05507,-0.0653 -0.07271,-0.113226 -0.01765,-0.04793 -0.02778,-0.105205 -0.02778,-0.169473 0,-0.06736 0.01004,-0.122522 0.02773,-0.164313 0.0088,-0.02092 0.01961,-0.03847 0.03194,-0.05256 0.01233,-0.01405 0.02619,-0.02465 0.04137,-0.03161 0.01517,-0.007 0.03166,-0.01032 0.04908,-0.0099 z"
         style="opacity:1;fill:#ffffff;fill-opacity:1;stroke:none;stroke-width:0.1722005;stroke-linecap:round;stroke-linejoin:round;stroke-miterlimit:0.2;stroke-dasharray:none;stroke-opacity:1" />
      <path
         inkscape:connector-curvature="0"
         id="path3914"
         d="m 50.875403,44.220664 c -0.0052,-0.0052 -0.01849,-0.0014 -0.03567,0.009 -0.01718,0.01032 -0.03828,0.02717 -0.05919,0.04808 -0.01573,0.01573 -0.02848,0.03128 -0.03889,0.04928 -0.01046,0.01802 -0.01858,0.03847 -0.02502,0.06408 -0.01293,0.05118 -0.01928,0.122835 -0.02446,0.236225 -0.0068,0.150493 -0.0037,0.296715 0.0073,0.324948 0.0065,0.017 0.02274,0.02965 0.04454,0.03796 0.02176,0.0083 0.04904,0.01237 0.07767,0.01209 0.02862,-2.62e-4 0.0586,-0.0048 0.08571,-0.01359 0.02713,-0.0088 0.05135,-0.0218 0.06856,-0.03903 0.0148,-0.0148 0.02834,-0.03768 0.0381,-0.06261 0.0098,-0.02493 0.01583,-0.05191 0.01583,-0.07493 0,-0.04473 -0.03072,-0.184712 -0.06535,-0.317445 -0.03464,-0.132733 -0.07325,-0.258257 -0.08906,-0.274061 z"
         style="opacity:1;fill:#ffffff;fill-opacity:1;stroke:none;stroke-width:0.1722005;stroke-linecap:round;stroke-linejoin:round;stroke-miterlimit:0.2;stroke-dasharray:none;stroke-opacity:1" />
      <path
         inkscape:connector-curvature="0"
         id="path3912"
         d="m 50.875403,44.220664 c 0.01583,0.01583 0.05441,0.141329 0.08906,0.274062 0.03464,0.132733 0.06535,0.272716 0.06535,0.317445 0,0.02302 -0.006,0.05 -0.01583,0.07493 -0.0098,0.02493 -0.0233,0.04779 -0.0381,0.0626 -0.01723,0.01723 -0.04146,0.03026 -0.06856,0.03903 -0.02713,0.0088 -0.05708,0.01335 -0.08571,0.01359 -0.02862,2.66e-4 -0.05591,-0.0037 -0.07767,-0.01209 -0.02176,-0.0084 -0.03801,-0.02096 -0.04454,-0.03796 -0.01083,-0.02825 -0.01415,-0.174454 -0.0073,-0.324948 0.0051,-0.113389 0.01149,-0.185048 0.02446,-0.236224 0.0065,-0.02559 0.01461,-0.04608 0.02503,-0.06408 0.01041,-0.01802 0.02316,-0.03352 0.03889,-0.04928 0.02087,-0.02087 0.04197,-0.03773 0.05919,-0.04808 0.01718,-0.01032 0.03049,-0.01419 0.03567,-0.009 z m 0.360502,0.680095 c 0.02134,0 0.03856,9.34e-4 0.05283,0.0047 0.01424,0.0033 0.02554,0.0091 0.03516,0.01825 0.01919,0.0183 0.03156,0.05043 0.04694,0.105794 0.01275,0.04585 0.0219,0.08371 0.02731,0.115971 0.0054,0.03226 0.007,0.05882 0.0047,0.08216 -0.0023,0.02334 -0.0087,0.04337 -0.01942,0.0624 -0.01065,0.01905 -0.02559,0.03716 -0.04501,0.05658 -0.02166,0.02166 -0.03997,0.03791 -0.05665,0.04861 -0.01667,0.01074 -0.03175,0.01587 -0.04694,0.01559 -0.01517,-2.99e-4 -0.03049,-0.0061 -0.0476,-0.01746 -0.01713,-0.01139 -0.03604,-0.02834 -0.05859,-0.05089 -0.03021,-0.03021 -0.04749,-0.05476 -0.05504,-0.08771 -0.0076,-0.03296 -0.0054,-0.07429 0.0033,-0.137934 0.0068,-0.04951 0.0127,-0.08772 0.01961,-0.117246 0.0069,-0.02951 0.0148,-0.05034 0.02559,-0.06495 0.01078,-0.01461 0.02437,-0.02302 0.04272,-0.02778 0.01835,-0.0048 0.04141,-0.0059 0.07111,-0.0059 z m -2.645909,0.114832 c 0.02036,-0.0023 0.03941,-0.0019 0.05691,0.0014 0.01756,0.0033 0.03362,0.0095 0.04794,0.01816 0.01433,0.0087 0.02694,0.01998 0.03768,0.03352 0.02157,0.02717 0.03562,0.06364 0.04085,0.10767 0.0052,0.04403 0.0014,0.09562 -0.01247,0.152931 -0.01382,0.05657 -0.03413,0.146595 -0.04515,0.200073 -0.0055,0.02675 -0.0198,0.06031 -0.03842,0.09294 -0.01863,0.03264 -0.0416,0.06429 -0.06434,0.08705 -0.02068,0.02068 -0.04109,0.0374 -0.06087,0.05035 -0.0198,0.01298 -0.03894,0.02218 -0.05718,0.02778 -0.01826,0.0056 -0.03553,0.0078 -0.05156,0.0064 -0.01606,-0.0014 -0.03086,-0.0061 -0.04407,-0.01391 -0.01321,-0.0079 -0.02484,-0.01896 -0.03455,-0.03301 -0.0098,-0.01405 -0.01756,-0.03114 -0.02316,-0.05102 -0.01121,-0.03973 -0.01354,-0.09065 -0.0042,-0.15126 0.01326,-0.088 0.0261,-0.161909 0.03931,-0.223842 0.01321,-0.06193 0.0268,-0.111886 0.04146,-0.151857 0.01466,-0.03997 0.03039,-0.06994 0.04801,-0.09207 0.0176,-0.02213 0.03702,-0.03642 0.05906,-0.04478 0.02288,-0.0087 0.04459,-0.0141 0.06495,-0.01653 z"
         style="opacity:1;fill:#ffffff;fill-opacity:1;stroke:none;stroke-width:0.1722005;stroke-linecap:round;stroke-linejoin:round;stroke-miterlimit:0.2;stroke-dasharray:none;stroke-opacity:1" />
      <path
         inkscape:connector-curvature="0"
         id="path3910"
         d="m 47.499521,44.15853 c -0.02068,0.0042 -0.03908,0.01363 -0.05444,0.02797 -0.01536,0.01438 -0.02769,0.03352 -0.03614,0.05671 -0.0085,0.0232 -0.01307,0.05048 -0.01307,0.08109 0,0.02325 4.66e-4,0.04113 0.0028,0.0547 0.0023,0.01359 0.0067,0.02288 0.01419,0.02895 0.01499,0.01214 0.04282,0.01139 0.09428,0.0064 0.04864,-0.0047 0.07683,-0.01078 0.09401,-0.02759 0.0086,-0.0084 0.01443,-0.01947 0.01868,-0.03436 0.0042,-0.01489 0.007,-0.03366 0.0092,-0.05732 0.0042,-0.04267 0.0028,-0.071 -0.0064,-0.09093 -0.0093,-0.01994 -0.0268,-0.03142 -0.05517,-0.04043 -0.02447,-0.0078 -0.04742,-0.0092 -0.0681,-0.0052 z"
         style="opacity:1;fill:#ffffff;fill-opacity:1;stroke:none;stroke-width:0.1722005;stroke-linecap:round;stroke-linejoin:round;stroke-miterlimit:0.2;stroke-dasharray:none;stroke-opacity:1" />
      <path
         inkscape:connector-curvature="0"
         id="path3908"
         d="m 47.499521,44.15853 c 0.02068,-0.0042 0.04365,-0.0023 0.0681,0.0052 0.02839,0.009 0.0458,0.0205 0.05517,0.04043 0.0093,0.01994 0.01055,0.04826 0.0064,0.09093 -0.0023,0.02367 -0.005,0.04244 -0.0092,0.05732 -0.0042,0.01489 -0.01008,0.02596 -0.01868,0.03436 -0.01718,0.01681 -0.04538,0.02288 -0.09401,0.02759 -0.05144,0.0049 -0.07928,0.0057 -0.09427,-0.0064 -0.0075,-0.0061 -0.01177,-0.01536 -0.01419,-0.02895 -0.0023,-0.01359 -0.0028,-0.03142 -0.0028,-0.0547 0,-0.03063 0.0047,-0.05788 0.01307,-0.08109 0.0085,-0.02321 0.02082,-0.04235 0.03614,-0.05671 0.01536,-0.01433 0.03376,-0.02395 0.05444,-0.02797 z"
         style="opacity:1;fill:#ffffff;fill-opacity:1;stroke:none;stroke-width:0.1722005;stroke-linecap:round;stroke-linejoin:round;stroke-miterlimit:0.2;stroke-dasharray:none;stroke-opacity:1" />
      <path
         inkscape:connector-curvature="0"
         id="path3906"
         d="m 48.133813,44.112261 c -0.0063,0 -0.04515,0.09086 -0.08236,0.185809 -0.03716,0.09494 -0.07278,0.19392 -0.07278,0.210182 0,0.009 0.05014,0.04727 0.11142,0.08503 0.04029,0.02484 0.07543,0.04207 0.106059,0.05149 0.03063,0.0094 0.05678,0.01102 0.07901,0.0047 0.02222,-0.0063 0.04057,-0.02073 0.05564,-0.04324 0.01508,-0.0225 0.02689,-0.05324 0.03609,-0.09227 0.0095,-0.04043 0.01321,-0.07991 0.01158,-0.117306 -0.0014,-0.0374 -0.0086,-0.0727 -0.0205,-0.104589 -0.01186,-0.03189 -0.02857,-0.06038 -0.04975,-0.0843 -0.0212,-0.0239 -0.04682,-0.04323 -0.0764,-0.05671 -0.04675,-0.02129 -0.09084,-0.03871 -0.09802,-0.03871 z"
         style="opacity:1;fill:#ffffff;fill-opacity:1;stroke:none;stroke-width:0.1722005;stroke-linecap:round;stroke-linejoin:round;stroke-miterlimit:0.2;stroke-dasharray:none;stroke-opacity:1" />
      <path
         inkscape:connector-curvature="0"
         id="path3904"
         d="m 48.133813,44.112261 c 0.0072,0 0.05127,0.01742 0.09802,0.03871 0.0296,0.01349 0.05522,0.03278 0.0764,0.05671 0.0212,0.0239 0.03791,0.05241 0.04975,0.0843 0.01186,0.03189 0.01886,0.06719 0.0205,0.104589 0.0019,0.0374 -0.0019,0.07687 -0.01158,0.117307 -0.0092,0.03903 -0.02101,0.06975 -0.03609,0.09227 -0.01508,0.0225 -0.03343,0.03688 -0.05564,0.04323 -0.02222,0.0064 -0.04837,0.0048 -0.07901,-0.0047 -0.03063,-0.0094 -0.06576,-0.02666 -0.106059,-0.05149 -0.06128,-0.03777 -0.11142,-0.07604 -0.11142,-0.08504 0,-0.01625 0.03558,-0.115239 0.07278,-0.210181 0.03721,-0.09495 0.07599,-0.18581 0.08236,-0.18581 z"
         style="opacity:1;fill:#ffffff;fill-opacity:1;stroke:none;stroke-width:0.1722005;stroke-linecap:round;stroke-linejoin:round;stroke-miterlimit:0.2;stroke-dasharray:none;stroke-opacity:1" />
      <path
         inkscape:connector-curvature="0"
         id="path3902"
         d="m 51.228472,44.025148 c -0.02292,-0.0089 -0.0465,-0.0088 -0.07004,4.02e-4 -0.02353,0.0092 -0.04691,0.02769 -0.0695,0.05557 -0.01354,0.01671 -0.02409,0.03208 -0.03208,0.04815 -0.008,0.01606 -0.01335,0.03287 -0.01639,0.05243 -0.0061,0.03913 -0.0028,0.08939 0.0068,0.16726 0.0093,0.07454 0.01998,0.137603 0.03268,0.190296 0.0127,0.05269 0.02736,0.09498 0.04459,0.128022 0.01723,0.03306 0.03698,0.05685 0.05986,0.07245 0.02288,0.01559 0.04891,0.02302 0.07861,0.02334 0.01228,1.3e-4 0.02904,-0.01312 0.04613,-0.03455 0.01709,-0.02143 0.03446,-0.05113 0.04814,-0.08383 0.01611,-0.03852 0.02806,-0.07601 0.0359,-0.113292 0.0078,-0.0373 0.01158,-0.07436 0.01121,-0.111886 -4.02e-4,-0.03754 -0.0049,-0.07548 -0.01359,-0.114701 -0.0087,-0.03922 -0.02148,-0.07969 -0.03843,-0.122065 -0.01732,-0.04328 -0.03674,-0.07828 -0.05765,-0.104654 -0.02087,-0.02638 -0.04319,-0.04412 -0.06615,-0.05296 z"
         style="opacity:1;fill:#ffffff;fill-opacity:1;stroke:none;stroke-width:0.1722005;stroke-linecap:round;stroke-linejoin:round;stroke-miterlimit:0.2;stroke-dasharray:none;stroke-opacity:1" />
      <path
         inkscape:connector-curvature="0"
         id="path3900"
         d="m 51.228472,44.025148 c 0.02293,0.0089 0.04529,0.02661 0.06615,0.05297 0.02087,0.02638 0.04034,0.06135 0.05765,0.104654 0.01695,0.04239 0.02974,0.08284 0.03843,0.122064 0.0087,0.03922 0.01317,0.07718 0.01359,0.114702 4.01e-4,0.03754 -0.0033,0.0746 -0.01121,0.111886 -0.0078,0.03731 -0.0198,0.07479 -0.0359,0.113291 -0.01368,0.03268 -0.03105,0.06238 -0.04814,0.08383 -0.01709,0.02143 -0.03385,0.03469 -0.04613,0.03455 -0.02969,-3.5e-4 -0.05572,-0.0078 -0.07861,-0.02335 -0.02288,-0.01559 -0.04263,-0.0394 -0.05986,-0.07245 -0.01723,-0.03306 -0.03189,-0.07533 -0.04459,-0.128022 -0.0127,-0.05269 -0.02334,-0.115757 -0.03268,-0.190297 -0.0097,-0.07787 -0.01284,-0.128129 -0.0068,-0.167259 0.0033,-0.01956 0.0085,-0.03637 0.01639,-0.05243 0.008,-0.01606 0.01854,-0.03142 0.03208,-0.04815 0.0226,-0.02787 0.04599,-0.04631 0.0695,-0.05557 0.02353,-0.0092 0.0471,-0.0092 0.07004,-4.01e-4 z"
         style="opacity:1;fill:#ffffff;fill-opacity:1;stroke:none;stroke-width:0.1722005;stroke-linecap:round;stroke-linejoin:round;stroke-miterlimit:0.2;stroke-dasharray:none;stroke-opacity:1" />
      <path
         inkscape:connector-curvature="0"
         id="path3898"
         d="m 51.953491,43.962412 c -0.0037,-0.0042 -0.0095,-0.0037 -0.01634,9.34e-4 -0.0068,0.0047 -0.0148,0.01335 -0.02349,0.02512 -0.01737,0.02353 -0.03758,0.05931 -0.05678,0.0993 -0.01919,0.04001 -0.0374,0.08423 -0.05082,0.12481 -0.0134,0.04057 -0.02204,0.07748 -0.02204,0.102782 0,0.02689 0.0067,0.06222 0.01732,0.09984 0.01069,0.03763 0.02535,0.07756 0.04132,0.113693 0.01597,0.03614 0.03315,0.06842 0.04901,0.09086 0.01583,0.02246 0.0303,0.03497 0.04067,0.03151 0.01013,-0.0033 0.02423,-0.0254 0.03871,-0.05819 0.01447,-0.03278 0.02941,-0.07626 0.04123,-0.122601 0.0106,-0.0416 0.01667,-0.08924 0.01868,-0.138537 0.0019,-0.04929 -4.7e-5,-0.100237 -0.0056,-0.148444 -0.0056,-0.0482 -0.01471,-0.09366 -0.02685,-0.131972 -0.01214,-0.03833 -0.02731,-0.06949 -0.04501,-0.08912 z"
         style="opacity:1;fill:#ffffff;fill-opacity:1;stroke:none;stroke-width:0.1722005;stroke-linecap:round;stroke-linejoin:round;stroke-miterlimit:0.2;stroke-dasharray:none;stroke-opacity:1" />
      <path
         inkscape:connector-curvature="0"
         id="path3896"
         d="m 47.881985,43.872283 c -0.03007,0 -0.05688,0.0074 -0.07988,0.02134 -0.02302,0.01391 -0.04216,0.03432 -0.05698,0.0602 -0.0148,0.02587 -0.02526,0.0572 -0.03072,0.09307 -0.0055,0.03586 -0.0061,0.07623 -9.34e-4,0.120122 0.0059,0.05243 0.01704,0.09624 0.03212,0.130637 0.01513,0.03441 0.03422,0.05943 0.05624,0.07425 0.02199,0.01485 0.04689,0.01947 0.07352,0.01317 0.02661,-0.0063 0.05495,-0.02353 0.0839,-0.05249 0.01312,-0.01312 0.02372,-0.03012 0.03189,-0.04988 0.0082,-0.01975 0.01396,-0.04225 0.0176,-0.06629 0.0073,-0.04808 0.0058,-0.102348 -0.0028,-0.153333 -0.0085,-0.05099 -0.02414,-0.09869 -0.04534,-0.133648 -0.0106,-0.01746 -0.02255,-0.03179 -0.03567,-0.04169 -0.01317,-0.0099 -0.02745,-0.01545 -0.04277,-0.01545 z"
         style="opacity:1;fill:#ffffff;fill-opacity:1;stroke:none;stroke-width:0.1722005;stroke-linecap:round;stroke-linejoin:round;stroke-miterlimit:0.2;stroke-dasharray:none;stroke-opacity:1" />
      <path
         inkscape:connector-curvature="0"
         id="path3894"
         d="m 51.466307,43.790932 c -0.0113,0.0033 -0.02316,0.01088 -0.03749,0.02148 -0.01541,0.01144 -0.02699,0.02064 -0.03474,0.03175 -0.0078,0.01111 -0.01177,0.02404 -0.012,0.04314 -4.53e-4,0.0381 0.0141,0.100494 0.04323,0.22049 l 0.06033,0.248079 0.114898,-0.111414 c 0.03161,-0.03063 0.06033,-0.06479 0.08116,-0.09515 0.02082,-0.03035 0.03376,-0.05688 0.03376,-0.07232 0,-0.01545 -0.01256,-0.04384 -0.03273,-0.0772 -0.02022,-0.03334 -0.04804,-0.07164 -0.07868,-0.106797 -0.05003,-0.05741 -0.07952,-0.08821 -0.10365,-0.0993 -0.01205,-0.0056 -0.02278,-0.0062 -0.03408,-0.0028 z"
         style="opacity:1;fill:#ffffff;fill-opacity:1;stroke:none;stroke-width:0.1722005;stroke-linecap:round;stroke-linejoin:round;stroke-miterlimit:0.2;stroke-dasharray:none;stroke-opacity:1" />
      <path
         inkscape:connector-curvature="0"
         id="path3892"
         d="m 51.466307,43.790932 c 0.0113,-0.0033 0.02204,-0.0028 0.03408,0.0028 0.02414,0.01111 0.05362,0.04188 0.103651,0.0993 0.03063,0.03516 0.05848,0.07345 0.07868,0.106797 0.02022,0.03334 0.03273,0.06177 0.03273,0.0772 0,0.01545 -0.01293,0.04197 -0.03376,0.07232 -0.02082,0.03035 -0.04955,0.06452 -0.08116,0.09515 l -0.114897,0.111414 -0.06033,-0.248079 c -0.02918,-0.119996 -0.0437,-0.182373 -0.04324,-0.22049 2.25e-4,-0.01905 0.0042,-0.03203 0.012,-0.04314 0.0078,-0.01107 0.01933,-0.02031 0.03474,-0.03175 0.01433,-0.01065 0.02619,-0.01807 0.03749,-0.02148 z"
         style="opacity:1;fill:#ffffff;fill-opacity:1;stroke:none;stroke-width:0.1722005;stroke-linecap:round;stroke-linejoin:round;stroke-miterlimit:0.2;stroke-dasharray:none;stroke-opacity:1" />
      <path
         inkscape:connector-curvature="0"
         id="path3890"
         d="m 47.590915,43.598492 c -0.02974,-0.0014 -0.06061,0.0014 -0.08785,0.0079 -0.02722,0.0067 -0.05087,0.01751 -0.06609,0.03273 -0.01261,0.01265 -0.02227,0.0345 -0.0289,0.06154 -0.0067,0.02703 -0.01027,0.05931 -0.01083,0.0928 -4.67e-4,0.03348 0.0019,0.06819 0.0076,0.100167 0.0057,0.03198 0.01447,0.0612 0.02652,0.0837 0.01205,0.0225 0.02979,0.03903 0.05069,0.04968 0.02092,0.01064 0.04496,0.0155 0.06957,0.01452 0.02461,-9.34e-4 0.04977,-0.0077 0.07292,-0.02008 0.02316,-0.01237 0.04426,-0.03035 0.0608,-0.05397 0.01368,-0.01956 0.02493,-0.04305 0.03343,-0.06876 0.0085,-0.02573 0.01424,-0.05371 0.01718,-0.08223 0.0028,-0.02853 0.0028,-0.05763 7e-5,-0.08557 -0.0028,-0.02792 -0.0089,-0.05469 -0.01816,-0.07868 -0.0062,-0.0162 -0.02306,-0.02899 -0.0458,-0.03805 -0.02274,-0.009 -0.0514,-0.01433 -0.08115,-0.01573 z"
         style="opacity:1;fill:#ffffff;fill-opacity:1;stroke:none;stroke-width:0.1722005;stroke-linecap:round;stroke-linejoin:round;stroke-miterlimit:0.2;stroke-dasharray:none;stroke-opacity:1" />
      <path
         inkscape:connector-curvature="0"
         id="path3888"
         d="m 47.590915,43.598492 c 0.02974,0.0014 0.05841,0.0067 0.08115,0.01573 0.02274,0.009 0.03959,0.0218 0.0458,0.03805 0.0092,0.024 0.01517,0.05074 0.01816,0.07868 0.0028,0.02792 0.0028,0.05706 -7e-5,0.08557 -0.0028,0.02853 -0.0087,0.0565 -0.01718,0.08222 -0.0085,0.02573 -0.0197,0.0492 -0.03343,0.06876 -0.01653,0.02363 -0.03763,0.0416 -0.0608,0.05397 -0.02316,0.01237 -0.04831,0.01914 -0.07292,0.02008 -0.0246,9.33e-4 -0.04867,-0.0037 -0.06957,-0.01452 -0.02092,-0.01065 -0.03866,-0.02717 -0.05069,-0.04968 -0.01205,-0.0225 -0.02082,-0.05172 -0.02652,-0.0837 -0.0056,-0.03198 -0.0082,-0.06667 -0.0076,-0.100167 4.67e-4,-0.03352 0.0042,-0.06576 0.01083,-0.0928 0.0067,-0.02703 0.01629,-0.04891 0.0289,-0.06154 0.01522,-0.01522 0.03885,-0.02605 0.06609,-0.03273 0.02722,-0.0067 0.0581,-0.0093 0.08785,-0.0079 z m 0.29107,0.273791 c 0.01531,0 0.02965,0.0056 0.04277,0.01545 0.01317,0.0099 0.02512,0.02423 0.03567,0.04169 0.02115,0.03497 0.03679,0.08266 0.04534,0.133648 0.0085,0.05098 0.01,0.105256 0.0028,0.153332 -0.0037,0.02405 -0.0094,0.04655 -0.0176,0.06629 -0.0082,0.01975 -0.01877,0.03675 -0.03189,0.04988 -0.02895,0.02895 -0.05727,0.04622 -0.0839,0.05249 -0.02661,0.0063 -0.05151,0.0019 -0.07352,-0.01317 -0.02199,-0.01485 -0.04113,-0.03987 -0.05624,-0.07426 -0.01513,-0.03441 -0.02624,-0.07821 -0.03212,-0.130637 -0.0049,-0.04389 -0.0042,-0.08425 9.33e-4,-0.120122 0.0055,-0.03586 0.01592,-0.06719 0.03072,-0.09307 0.0148,-0.02587 0.03399,-0.04627 0.05698,-0.0602 0.02302,-0.01391 0.04981,-0.02134 0.07988,-0.02134 z m 4.071506,0.09013 c 0.0177,0.01961 0.03287,0.0508 0.04501,0.08912 0.01214,0.03833 0.02129,0.08377 0.02685,0.131972 0.0056,0.04821 0.0076,0.09915 0.0056,0.148444 -0.0019,0.0493 -0.0081,0.09695 -0.01868,0.138537 -0.01181,0.04636 -0.02675,0.08983 -0.04123,0.122601 -0.01447,0.03278 -0.02857,0.0548 -0.03871,0.05819 -0.01037,0.0033 -0.02479,-0.0091 -0.04067,-0.03151 -0.01588,-0.02246 -0.03306,-0.05473 -0.04901,-0.09086 -0.01597,-0.03614 -0.03063,-0.07608 -0.04132,-0.113693 -0.01069,-0.03763 -0.01732,-0.07294 -0.01732,-0.09984 0,-0.02531 0.0086,-0.0622 0.02204,-0.102782 0.0134,-0.04057 0.03161,-0.08482 0.05082,-0.12481 0.01919,-0.04001 0.03941,-0.07577 0.05678,-0.0993 0.0087,-0.01177 0.01671,-0.02045 0.02348,-0.02512 0.0068,-0.0047 0.01237,-0.0053 0.01634,-9.34e-4 z"
         style="opacity:1;fill:#ffffff;fill-opacity:1;stroke:none;stroke-width:0.1722005;stroke-linecap:round;stroke-linejoin:round;stroke-miterlimit:0.2;stroke-dasharray:none;stroke-opacity:1" />
      <path
         inkscape:connector-curvature="0"
         id="path3886"
         d="m 51.682983,43.46786 c -0.01676,0.0079 -0.0289,0.02577 -0.03595,0.05343 -0.007,0.02764 -0.0091,0.06512 -0.0054,0.112087 0.0033,0.04211 0.01065,0.08322 0.01994,0.115504 0.0093,0.03226 0.02059,0.05575 0.03147,0.06261 0.012,0.0076 0.02843,0.01116 0.04687,0.01153 0.01844,3.6e-4 0.03894,-0.0023 0.05899,-0.008 0.02008,-0.0055 0.03969,-0.01354 0.05651,-0.02358 0.01681,-0.01 0.03081,-0.02194 0.0395,-0.03516 0.01111,-0.0169 0.01849,-0.03315 0.02185,-0.04942 0.0033,-0.01625 0.0028,-0.03254 -0.0019,-0.04948 -0.0048,-0.01695 -0.01373,-0.0346 -0.02699,-0.0535 -0.01326,-0.01891 -0.03091,-0.03908 -0.05303,-0.0612 -0.0331,-0.0331 -0.06268,-0.05571 -0.08812,-0.0681 -0.02545,-0.01237 -0.04678,-0.01457 -0.06354,-0.0067 z"
         style="opacity:1;fill:#ffffff;fill-opacity:1;stroke:none;stroke-width:0.1722005;stroke-linecap:round;stroke-linejoin:round;stroke-miterlimit:0.2;stroke-dasharray:none;stroke-opacity:1" />
      <path
         inkscape:connector-curvature="0"
         id="path3884"
         d="m 51.682983,43.46786 c 0.01676,-0.0079 0.0381,-0.0057 0.06354,0.0067 0.02545,0.01237 0.055,0.03497 0.08812,0.0681 0.02213,0.02213 0.03973,0.0423 0.05303,0.0612 0.01326,0.01891 0.02222,0.03656 0.02699,0.0535 0.0048,0.01695 0.0054,0.0332 0.0019,0.04948 -0.0033,0.01629 -0.01069,0.03254 -0.02185,0.04942 -0.0087,0.01321 -0.02269,0.02517 -0.0395,0.03516 -0.01681,0.01 -0.03646,0.01807 -0.05651,0.02358 -0.02008,0.0055 -0.04053,0.0084 -0.05899,0.008 -0.01844,-3.55e-4 -0.03488,-0.0042 -0.04687,-0.01153 -0.01088,-0.0069 -0.02213,-0.03035 -0.03147,-0.06261 -0.0093,-0.03231 -0.01671,-0.07338 -0.01994,-0.115504 -0.0037,-0.04697 -0.0019,-0.08443 0.0054,-0.112087 0.007,-0.02764 0.01919,-0.04557 0.03595,-0.05343 z"
         style="opacity:1;fill:#ffffff;fill-opacity:1;stroke:none;stroke-width:0.1722005;stroke-linecap:round;stroke-linejoin:round;stroke-miterlimit:0.2;stroke-dasharray:none;stroke-opacity:1" />
      <path
         inkscape:connector-curvature="0"
         id="path3882"
         d="m 52.317612,43.08379 c -0.01601,0 -0.03184,0.0088 -0.04788,0.02717 -0.01601,0.01844 -0.03226,0.04646 -0.04901,0.08497 -0.03352,0.07707 -0.06932,0.196123 -0.11028,0.363849 -0.02577,0.105546 -0.03959,0.175832 -0.04291,0.237434 -0.0033,0.0616 0.0037,0.11451 0.02022,0.185137 0.02349,0.101717 0.03604,0.203304 0.03749,0.292942 9.34e-4,0.04482 -0.0014,0.08668 -0.0062,0.124007 -0.0049,0.03731 -0.01251,0.07017 -0.02297,0.09702 -0.0169,0.04333 -0.04926,0.141533 -0.07198,0.218281 -0.01606,0.05431 -0.05134,0.125716 -0.09936,0.205765 -0.04802,0.08004 -0.10879,0.168725 -0.175962,0.257584 -0.06718,0.08886 -0.140736,0.177905 -0.214267,0.258659 -0.07353,0.08075 -0.147099,0.153187 -0.214201,0.208911 -0.13637,0.11325 -0.278492,0.219281 -0.405361,0.303989 -0.06344,0.04235 -0.123073,0.07939 -0.176233,0.109342 -0.05316,0.02993 -0.09985,0.05281 -0.137467,0.06682 -0.05656,0.0211 -0.210835,0.08024 -0.342821,0.131505 -0.08883,0.0345 -0.180753,0.06114 -0.274729,0.07995 -0.09398,0.01882 -0.190039,0.02983 -0.287116,0.03287 -0.09708,0.0033 -0.195161,-0.0019 -0.293279,-0.01461 -0.09812,-0.01275 -0.196239,-0.03343 -0.293339,-0.06207 -0.175374,-0.05173 -0.324621,-0.09922 -0.453708,-0.145367 -0.129086,-0.04613 -0.238017,-0.09093 -0.332848,-0.137397 -0.09483,-0.04646 -0.175547,-0.09457 -0.248144,-0.147239 -0.0726,-0.05268 -0.137079,-0.109926 -0.19947,-0.174698 -0.04281,-0.04445 -0.08633,-0.09959 -0.129965,-0.163576 -0.04365,-0.06399 -0.0874,-0.136841 -0.130501,-0.216741 -0.04309,-0.0799 -0.08555,-0.166825 -0.126752,-0.258994 -0.04118,-0.09217 -0.08113,-0.189535 -0.119048,-0.290328 -0.03791,-0.100798 -0.07386,-0.205041 -0.107133,-0.31082 -0.03329,-0.105779 -0.06387,-0.213141 -0.09113,-0.320261 -0.02727,-0.107119 -0.05117,-0.213972 -0.07104,-0.318785 -0.01989,-0.104817 -0.03567,-0.207599 -0.0468,-0.306468 -0.01755,-0.156124 -0.04118,-0.298825 -0.0525,-0.317114 -0.01009,-0.01634 -0.02871,-0.0268 -0.05169,-0.03207 -0.02297,-0.0053 -0.05032,-0.0053 -0.07767,-9.34e-4 -0.02736,0.0042 -0.05474,0.01331 -0.07794,0.02605 -0.0232,0.01275 -0.04225,0.02927 -0.05276,0.04894 -0.01368,0.02554 -0.02176,0.107087 -0.02503,0.222036 -0.0033,0.114944 -0.0019,0.263313 0.0037,0.422706 0.0056,0.159392 0.01513,0.329766 0.02792,0.488659 0.01279,0.158888 0.02885,0.306319 0.04734,0.419755 0.02017,0.123647 0.04169,0.238732 0.06535,0.346645 0.02367,0.107908 0.04942,0.208626 0.07801,0.303387 0.02857,0.09476 0.05998,0.183573 0.09494,0.267763 0.03497,0.08419 0.07351,0.163772 0.116308,0.239978 0.04281,0.0762 0.08987,0.149023 0.141949,0.219822 0.05208,0.0708 0.109202,0.139522 0.172017,0.207502 0.06282,0.06798 0.131361,0.135207 0.206362,0.202949 0.075,0.06774 0.156433,0.13601 0.245068,0.206095 0.112796,0.08919 0.221638,0.170514 0.327091,0.244199 0.105447,0.07368 0.207533,0.139709 0.3068,0.198262 0.09927,0.05855 0.195684,0.109663 0.289926,0.153467 0.09424,0.0438 0.18629,0.08031 0.276671,0.109743 0.09038,0.02942 0.179152,0.05179 0.26683,0.06723 0.08767,0.01546 0.174263,0.02395 0.260395,0.02577 0.08614,0.0019 0.17177,-0.0033 0.257524,-0.01447 0.08575,-0.01144 0.171592,-0.02937 0.258122,-0.05363 0.128951,-0.03618 0.260895,-0.08458 0.392573,-0.143158 0.131677,-0.05857 0.263112,-0.127355 0.391036,-0.20442 0.127924,-0.07707 0.252314,-0.16239 0.370008,-0.254041 0.117694,-0.09165 0.228717,-0.189601 0.329701,-0.291934 0.09752,-0.09882 0.193107,-0.210728 0.26435,-0.305731 0.03562,-0.0475 0.06515,-0.09078 0.08577,-0.12608 0.02064,-0.0353 0.03236,-0.06267 0.03236,-0.07827 0,-0.02082 0.03922,-0.115113 0.08711,-0.209644 0.02909,-0.05736 0.05849,-0.130483 0.08765,-0.216877 0.02918,-0.0864 0.05808,-0.186085 0.08611,-0.296692 0.02801,-0.110611 0.05514,-0.232115 0.08082,-0.362108 0.02568,-0.129997 0.04987,-0.26851 0.07198,-0.413064 0.0275,-0.180001 0.04421,-0.364998 0.05115,-0.541222 0.007,-0.17622 0.0042,-0.343629 -0.0073,-0.48859 -0.0057,-0.07249 -0.01359,-0.139353 -0.02349,-0.198868 -0.0099,-0.05951 -0.0219,-0.111695 -0.03576,-0.154803 -0.01387,-0.04309 -0.02955,-0.07716 -0.04707,-0.100438 -0.01751,-0.02325 -0.0367,-0.03576 -0.05758,-0.03576 z"
         style="opacity:1;fill:#ffffff;fill-opacity:1;stroke:none;stroke-width:0.1722005;stroke-linecap:round;stroke-linejoin:round;stroke-miterlimit:0.2;stroke-dasharray:none;stroke-opacity:1" />
      <path
         inkscape:connector-curvature="0"
         id="path3880"
         d="m 52.317612,43.08379 c 0.02087,0 0.04011,0.01247 0.05758,0.03576 0.01751,0.02325 0.03324,0.05732 0.04707,0.100438 0.01387,0.04309 0.02582,0.09529 0.03576,0.154803 0.0099,0.05951 0.01779,0.126383 0.02348,0.198868 0.01144,0.144961 0.01424,0.31237 0.0073,0.488589 -0.007,0.176224 -0.02363,0.361221 -0.05115,0.541222 -0.02213,0.144555 -0.04632,0.283068 -0.07198,0.413065 -0.02568,0.129992 -0.05279,0.251497 -0.08082,0.362108 -0.02801,0.110607 -0.05695,0.210293 -0.08611,0.296692 -0.02913,0.08639 -0.05858,0.159514 -0.08764,0.216876 -0.04791,0.09453 -0.08711,0.188844 -0.08711,0.209644 0,0.0156 -0.01172,0.04295 -0.03236,0.07828 -0.02064,0.0353 -0.05015,0.07858 -0.08577,0.12608 -0.07124,0.095 -0.166834,0.206913 -0.26435,0.30573 -0.100984,0.102334 -0.212006,0.200288 -0.329701,0.291935 -0.117694,0.09165 -0.242083,0.176975 -0.370007,0.254041 -0.127924,0.07707 -0.259359,0.145848 -0.391037,0.204419 -0.131678,0.05858 -0.263622,0.106975 -0.392573,0.143159 -0.08653,0.02428 -0.172372,0.04221 -0.258122,0.05363 -0.08575,0.01144 -0.171387,0.01629 -0.257524,0.01447 -0.08613,-0.0019 -0.172722,-0.01032 -0.260395,-0.02577 -0.08768,-0.01545 -0.176448,-0.03782 -0.266829,-0.06723 -0.09038,-0.02941 -0.182429,-0.06594 -0.276672,-0.109743 -0.09424,-0.0438 -0.19066,-0.09492 -0.289926,-0.153468 -0.09927,-0.05855 -0.201352,-0.124581 -0.3068,-0.198261 -0.105452,-0.07369 -0.214294,-0.155008 -0.327091,-0.244199 -0.08864,-0.07008 -0.170066,-0.138354 -0.245067,-0.206096 -0.075,-0.06774 -0.143547,-0.134969 -0.206362,-0.202949 -0.06282,-0.06798 -0.119936,-0.136701 -0.172018,-0.207501 -0.05208,-0.0708 -0.09915,-0.143621 -0.141949,-0.219822 -0.04281,-0.07621 -0.08134,-0.155788 -0.116308,-0.239979 -0.03497,-0.08419 -0.06636,-0.173007 -0.09494,-0.267763 -0.02857,-0.09476 -0.05436,-0.195478 -0.07801,-0.303387 -0.02367,-0.107912 -0.04519,-0.222997 -0.06535,-0.346644 -0.01849,-0.113436 -0.03455,-0.260867 -0.04734,-0.419755 -0.01279,-0.158893 -0.02236,-0.329267 -0.02792,-0.48866 -0.0056,-0.159392 -0.007,-0.307761 -0.0037,-0.422706 0.0033,-0.114949 0.01134,-0.196482 0.02502,-0.222035 0.01051,-0.01966 0.02955,-0.03623 0.05276,-0.04894 0.0232,-0.01275 0.05058,-0.02162 0.07794,-0.02605 0.02736,-0.0042 0.05469,-0.0042 0.07767,9.34e-4 0.02297,0.0053 0.0416,0.01573 0.05169,0.03208 0.0113,0.0183 0.03492,0.160989 0.0525,0.317114 0.01111,0.09887 0.02694,0.201651 0.0468,0.306468 0.01989,0.104813 0.04379,0.211666 0.07104,0.318785 0.02727,0.107119 0.05786,0.214481 0.09113,0.320261 0.03329,0.105779 0.06921,0.210022 0.107133,0.310819 0.03791,0.100793 0.07785,0.198159 0.119048,0.290328 0.04118,0.09217 0.08365,0.179091 0.126752,0.258995 0.0431,0.0799 0.08687,0.152753 0.130502,0.216741 0.04365,0.06399 0.08716,0.119146 0.129964,0.163576 0.06239,0.06477 0.126869,0.122022 0.199471,0.174697 0.0726,0.05267 0.153313,0.100774 0.248144,0.14724 0.09483,0.04645 0.203761,0.09124 0.332848,0.137397 0.129086,0.04613 0.278333,0.09363 0.453707,0.145367 0.0971,0.02862 0.195222,0.04931 0.29334,0.06207 0.09812,0.01275 0.196202,0.01765 0.293278,0.01461 0.09708,-0.0033 0.193135,-0.01405 0.287116,-0.03287 0.09398,-0.01882 0.185903,-0.04548 0.274729,-0.07995 0.131986,-0.05126 0.286257,-0.110424 0.342821,-0.131505 0.03763,-0.01401 0.08431,-0.03688 0.137467,-0.06682 0.05316,-0.02993 0.112797,-0.06699 0.176234,-0.109342 0.126868,-0.08471 0.268991,-0.19074 0.405361,-0.303989 0.0671,-0.05572 0.140665,-0.128158 0.214201,-0.208911 0.07353,-0.08075 0.14709,-0.169795 0.214266,-0.258659 0.06717,-0.08886 0.127943,-0.177541 0.175963,-0.257585 0.04802,-0.08005 0.08329,-0.151455 0.09936,-0.205764 0.02274,-0.07675 0.05509,-0.174968 0.07198,-0.218282 0.01046,-0.02685 0.01812,-0.0597 0.02297,-0.09702 0.0049,-0.03731 0.0069,-0.07919 0.0062,-0.124007 -0.0014,-0.08964 -0.01401,-0.191225 -0.03749,-0.292942 -0.01629,-0.07063 -0.02353,-0.123536 -0.02022,-0.185137 0.0033,-0.0616 0.01714,-0.131888 0.04291,-0.237434 0.04095,-0.167727 0.07674,-0.28678 0.11028,-0.36385 0.01676,-0.03852 0.03301,-0.06655 0.04901,-0.08497 0.01601,-0.0184 0.03184,-0.02717 0.04788,-0.02717 z m 0.285173,2.759266 c 0.05432,0.01321 0.183092,0.06754 0.307267,0.125814 0.124179,0.05828 0.243751,0.120509 0.279552,0.149583 0.02829,0.02297 0.213407,0.121509 0.411388,0.219019 0.197982,0.09751 0.444814,0.220953 0.54852,0.274262 0.07545,0.0388 0.140049,0.0696 0.201408,0.09408 0.06136,0.02446 0.119474,0.04258 0.181995,0.05604 0.06252,0.01345 0.129446,0.02218 0.20837,0.02787 0.07893,0.0057 0.169846,0.0084 0.28042,0.0096 0.125062,0.0014 0.225248,0.0051 0.305129,0.01293 0.07988,0.0078 0.139489,0.01984 0.183465,0.03796 0.02199,0.0091 0.04011,0.01961 0.05484,0.03193 0.01475,0.01233 0.02615,0.02647 0.03483,0.04258 0.01732,0.03222 0.02372,0.0724 0.02372,0.122531 0,0.02461 -0.0019,0.04697 -0.0074,0.06903 -0.0053,0.02204 -0.01396,0.04389 -0.02689,0.06749 -0.02591,0.04723 -0.06926,0.101684 -0.139138,0.179847 l -0.173488,0.194045 0.02302,0.279548 c 0.01064,0.129525 0.01508,0.200171 0.0088,0.242723 -0.0033,0.02129 -0.009,0.03548 -0.01816,0.0466 -0.0091,0.01111 -0.02152,0.0191 -0.03777,0.02778 -0.02395,0.01284 -0.04785,0.02269 -0.07185,0.02951 -0.024,0.0068 -0.04805,0.01065 -0.07245,0.0113 -0.02442,4.66e-4 -0.04915,-0.0019 -0.07432,-0.0074 -0.02516,-0.0057 -0.05077,-0.01452 -0.07707,-0.02666 -0.05259,-0.02428 -0.107852,-0.06163 -0.167128,-0.112825 -0.05928,-0.05119 -0.122583,-0.116181 -0.191431,-0.195651 -0.06387,-0.07372 -0.14836,-0.154191 -0.246674,-0.236696 -0.09831,-0.0825 -0.210461,-0.16705 -0.329766,-0.249083 -0.119305,-0.08204 -0.245716,-0.161573 -0.372557,-0.233885 -0.126836,-0.07232 -0.254116,-0.137425 -0.375032,-0.190763 -0.150307,-0.0663 -0.387441,-0.18115 -0.596591,-0.286649 -0.209154,-0.105494 -0.390308,-0.201674 -0.428668,-0.230533 -0.01634,-0.01228 -0.02857,-0.02171 -0.03651,-0.03203 -0.0079,-0.01032 -0.01149,-0.02148 -0.01055,-0.03716 0.0019,-0.03137 0.02176,-0.08091 0.06153,-0.177975 0.02587,-0.06306 0.05237,-0.117368 0.07948,-0.162908 0.02713,-0.04552 0.05485,-0.08233 0.08316,-0.11028 0.02829,-0.02792 0.0572,-0.04709 0.08664,-0.05738 0.02946,-0.01027 0.05947,-0.01172 0.08999,-0.0042 z"
         style="opacity:1;fill:#ffffff;fill-opacity:1;stroke:none;stroke-width:0.1722005;stroke-linecap:round;stroke-linejoin:round;stroke-miterlimit:0.2;stroke-dasharray:none;stroke-opacity:1" />
      <path
         inkscape:connector-curvature="0"
         id="path3866"
         d="m 49.267619,33.722019 c -0.0718,4.06e-4 -0.145404,0.0023 -0.221433,0.0051 -0.14202,0.0056 -0.282737,0.01447 -0.394982,0.02405 -0.112246,0.0096 -0.196025,0.01994 -0.22431,0.02881 -0.05657,0.01774 -0.195408,0.05075 -0.308541,0.07339 -0.08068,0.01615 -0.157903,0.03455 -0.233885,0.05591 -0.07598,0.02138 -0.150732,0.0458 -0.226387,0.07406 -0.07565,0.02825 -0.152249,0.06033 -0.231939,0.09709 -0.07969,0.03674 -0.162469,0.07819 -0.250558,0.125081 -0.0969,0.05157 -0.175224,0.09426 -0.243993,0.134451 -0.06877,0.0402 -0.128013,0.07785 -0.186612,0.119384 -0.117205,0.08307 -0.231985,0.181589 -0.416212,0.346374 -0.09513,0.08509 -0.176098,0.162343 -0.248616,0.239978 -0.07252,0.07763 -0.136589,0.155597 -0.198126,0.242117 -0.06154,0.08652 -0.120481,0.181579 -0.182662,0.293344 -0.06218,0.111765 -0.127625,0.240291 -0.202081,0.393647 -0.04305,0.0887 -0.08255,0.18368 -0.118315,0.283768 -0.03576,0.100083 -0.06781,0.205222 -0.09602,0.314167 -0.0282,0.10894 -0.05259,0.221727 -0.07298,0.336999 -0.0204,0.115266 -0.03679,0.233063 -0.04908,0.35213 -0.01233,0.119067 -0.0205,0.239362 -0.02442,0.359699 -0.0037,0.120337 -0.0037,0.240683 9.33e-4,0.359764 0.0047,0.119077 0.01368,0.236906 0.02717,0.352196 0.01349,0.115295 0.03152,0.228091 0.05417,0.337069 0.0431,0.207408 0.09017,0.392535 0.104589,0.411388 0.01443,0.01886 0.05794,0.127434 0.09675,0.241319 0.04314,0.126532 0.08865,0.233203 0.1301,0.30827 0.02073,0.03754 0.04043,0.06718 0.05832,0.08745 0.01788,0.02026 0.03394,0.03114 0.04734,0.03119 0.01555,9.8e-5 0.03362,0.0198 0.05162,0.05129 0.01798,0.03151 0.03586,0.07487 0.05089,0.122335 0.01503,0.04746 0.02722,0.09901 0.0339,0.146973 0.0066,0.04796 0.0077,0.09235 4.67e-4,0.125342 -0.0069,0.0318 -0.01018,0.07415 -0.0106,0.124343 -3.92e-4,0.05019 0.0023,0.108156 0.0068,0.171079 0.0094,0.125837 0.0275,0.271461 0.04861,0.414134 0.04221,0.285342 0.09638,0.558913 0.116438,0.638845 0.0059,0.02372 0.02166,0.05753 0.04225,0.09294 0.02059,0.03539 0.04599,0.07235 0.07124,0.10238 0.03422,0.04067 0.09328,0.09903 0.167797,0.167129 0.07452,0.06809 0.164533,0.145913 0.260465,0.225715 0.191865,0.159602 0.407635,0.326937 0.571822,0.439108 0.122303,0.08356 0.231659,0.164813 0.351594,0.262944 0.11994,0.09813 0.250469,0.213113 0.415007,0.364251 0.07329,0.06733 0.143224,0.126687 0.212927,0.179847 0.0697,0.05317 0.139157,0.10013 0.211516,0.142823 0.07236,0.04267 0.147594,0.08107 0.228866,0.116975 0.08127,0.0359 0.168586,0.06937 0.265018,0.10218 0.07252,0.02465 0.14801,0.04421 0.227657,0.05865 0.07965,0.01443 0.163487,0.02381 0.2525,0.02811 0.08901,0.0042 0.183227,0.0037 0.283834,-0.0023 0.100606,-0.0057 0.207571,-0.01639 0.321997,-0.03198 0.115943,-0.01583 0.240258,-0.04356 0.364186,-0.07954 0.123932,-0.036 0.247495,-0.08023 0.361771,-0.128895 0.114282,-0.04866 0.219281,-0.101792 0.306268,-0.15561 0.04351,-0.02689 0.08247,-0.05396 0.115836,-0.08075 0.03338,-0.0268 0.06113,-0.05335 0.08216,-0.07908 0.04857,-0.05944 0.109622,-0.134279 0.135656,-0.166391 0.02605,-0.03212 0.07351,-0.109249 0.105527,-0.171416 0.03997,-0.0776 0.07741,-0.141552 0.116975,-0.19538 0.03955,-0.05383 0.08128,-0.09754 0.129899,-0.134853 0.04862,-0.03731 0.104145,-0.06817 0.171275,-0.09622 0.06714,-0.02806 0.145886,-0.05331 0.240982,-0.07935 0.09652,-0.02643 0.190114,-0.05641 0.27627,-0.08778 0.08616,-0.03137 0.164855,-0.06416 0.231472,-0.09609 0.06662,-0.03193 0.121196,-0.06299 0.159093,-0.09106 0.01896,-0.01401 0.03376,-0.02731 0.0438,-0.03959 0.01004,-0.01223 0.01531,-0.02344 0.01531,-0.03334 0,-0.01774 0.03744,-0.08973 0.08323,-0.160032 0.03674,-0.05641 0.06795,-0.11572 0.09401,-0.179983 0.02605,-0.06426 0.04699,-0.13347 0.06327,-0.209845 0.01629,-0.07637 0.02792,-0.159882 0.03534,-0.252631 0.0074,-0.09275 0.01064,-0.194745 0.01013,-0.30814 -3.92e-4,-0.08866 0.01041,-0.164392 0.02531,-0.234552 0.01489,-0.07016 0.03376,-0.134755 0.04942,-0.201213 0.01569,-0.06646 0.02815,-0.134773 0.03011,-0.212324 9.33e-4,-0.03875 -9.34e-4,-0.07988 -0.0059,-0.124203 -0.0052,-0.04431 -0.01387,-0.09184 -0.02699,-0.14356 0.02283,-0.08326 0.05744,-0.172984 0.09857,-0.266558 0.04113,-0.09358 0.08872,-0.190978 0.137463,-0.289595 0.04874,-0.09861 0.09862,-0.198453 0.144293,-0.296823 0.04566,-0.09837 0.08713,-0.195277 0.119053,-0.288119 0.04328,-0.125809 0.08147,-0.259494 0.113894,-0.39579 0.0324,-0.136295 0.05909,-0.2752 0.07914,-0.411524 0.02008,-0.136318 0.03357,-0.270032 0.03969,-0.39592 0.0061,-0.125893 0.0049,-0.243989 -0.0042,-0.348984 -0.01639,-0.184969 -0.03968,-0.354885 -0.07131,-0.513769 -0.03161,-0.158883 -0.0715,-0.306697 -0.121126,-0.447414 -0.02479,-0.07036 -0.05205,-0.138933 -0.08189,-0.206231 -0.02983,-0.0673 -0.06228,-0.133363 -0.09749,-0.198597 -0.07043,-0.130464 -0.151974,-0.257744 -0.246001,-0.385878 -0.05474,-0.07459 -0.123152,-0.158599 -0.198397,-0.244932 -0.07525,-0.08633 -0.157291,-0.174987 -0.23931,-0.258995 -0.08202,-0.084 -0.164048,-0.163328 -0.239106,-0.230934 -0.07506,-0.06761 -0.143172,-0.123493 -0.197528,-0.160635 -0.06899,-0.04714 -0.179333,-0.126616 -0.245198,-0.176635 -0.0559,-0.04244 -0.140334,-0.09363 -0.24185,-0.148313 -0.101522,-0.05468 -0.220089,-0.112852 -0.344301,-0.169332 -0.124208,-0.05648 -0.254009,-0.111303 -0.377978,-0.159159 -0.123965,-0.04786 -0.242093,-0.08878 -0.342891,-0.117578 -0.157543,-0.04501 -0.303984,-0.08235 -0.444463,-0.112624 -0.140479,-0.0303 -0.275037,-0.05353 -0.408914,-0.07037 -0.133853,-0.01685 -0.266983,-0.02731 -0.404693,-0.03207 h -6.6e-5 c -0.06885,-0.0023 -0.138812,-0.0033 -0.210582,-0.0028 z m 2.821405,5.687875 c 0.02461,1.03e-4 0.04786,0.0028 0.06957,0.008 0.02171,0.0053 0.04193,0.01321 0.06046,0.02409 0.01853,0.01088 0.03534,0.0247 0.05042,0.04165 0.01508,0.01695 0.02834,0.03707 0.03964,0.06053 0.0113,0.02349 0.02064,0.05031 0.02792,0.08075 0.01555,0.06491 0.03058,0.157086 0.04277,0.26174 0.01223,0.104654 0.02166,0.221765 0.0261,0.336667 0.0047,0.114898 0.0037,0.227564 -0.0037,0.323202 -0.0037,0.04782 -0.0096,0.09136 -0.01732,0.12883 -0.0078,0.03749 -0.0176,0.06889 -0.02979,0.09233 -0.02283,0.09218 -0.04746,0.163823 -0.07265,0.220625 -0.02517,0.05681 -0.05093,0.09877 -0.07587,0.13144 -0.04987,0.06535 -0.09664,0.09367 -0.129899,0.129964 -0.02442,0.02666 -0.0703,0.05542 -0.127284,0.08444 -0.05698,0.02904 -0.125015,0.05826 -0.193845,0.08584 -0.137654,0.05516 -0.278291,0.10359 -0.339006,0.1301 -0.03441,0.01503 -0.07383,0.02568 -0.116975,0.03193 -0.04314,0.0063 -0.09003,0.0082 -0.139274,0.0058 -0.04924,-0.0023 -0.100891,-0.0091 -0.153603,-0.01994 -0.05271,-0.01088 -0.106475,-0.02596 -0.160028,-0.04519 -0.118502,-0.08281 -0.221443,-0.151904 -0.306734,-0.216676 -0.04263,-0.0324 -0.08084,-0.06366 -0.114431,-0.09508 -0.03357,-0.03142 -0.06255,-0.06298 -0.08658,-0.09582 -0.02405,-0.03282 -0.04314,-0.06697 -0.05712,-0.103584 -0.01396,-0.03661 -0.02283,-0.0757 -0.02624,-0.118451 -0.0033,-0.04277 -0.0014,-0.08915 0.0063,-0.140409 0.0077,-0.05127 0.02096,-0.107394 0.0402,-0.169538 0.08849,-0.102273 0.190744,-0.20449 0.301575,-0.302584 0.110831,-0.09809 0.230216,-0.192084 0.352869,-0.277941 0.153803,-0.107661 0.309704,-0.21549 0.458867,-0.309144 0.07458,-0.04683 0.147505,-0.09012 0.217609,-0.128026 0.0701,-0.03791 0.137388,-0.07044 0.20081,-0.09582 0.06342,-0.02535 0.122975,-0.04361 0.177504,-0.05283 0.02727,-0.0047 0.05325,-0.007 0.07787,-0.0069 z m -5.371298,0.05872 c 0.0065,-4.16e-4 0.01438,1.31e-4 0.02344,0.0014 0.01812,0.0028 0.04109,0.0092 0.0683,0.01868 0.05439,0.01896 0.125557,0.05043 0.207907,0.0908 0.164692,0.08073 0.374131,0.197164 0.583738,0.321264 0.209611,0.124096 0.419396,0.255829 0.584676,0.367062 0.08264,0.05562 0.154149,0.106125 0.208976,0.147977 0.05483,0.04183 0.09295,0.07509 0.108805,0.09615 0.04922,0.06537 0.08927,0.129507 0.119856,0.192103 0.03058,0.0626 0.05175,0.123633 0.06321,0.182793 0.01149,0.05916 0.01321,0.116425 0.005,0.171481 -0.0082,0.05506 -0.02629,0.107931 -0.05457,0.15822 -0.02829,0.05029 -0.06672,0.09803 -0.115635,0.142888 -0.04892,0.04487 -0.108273,0.08685 -0.178311,0.125613 -0.07004,0.03875 -0.150797,0.07426 -0.242453,0.106265 -0.09166,0.03203 -0.194228,0.06052 -0.308009,0.0851 -0.06599,0.01289 -0.143131,0.02871 -0.171411,0.0352 -0.01415,0.0033 -0.04736,-4.67e-4 -0.08946,-0.0096 -0.04211,-0.009 -0.09309,-0.02292 -0.142823,-0.03978 -0.09945,-0.03371 -0.20744,-0.08328 -0.239978,-0.110145 -0.147557,-0.121826 -0.26343,-0.220383 -0.355007,-0.305866 -0.09158,-0.08548 -0.158818,-0.157866 -0.209177,-0.227386 -0.02517,-0.03474 -0.04618,-0.06879 -0.06381,-0.103384 -0.01765,-0.0346 -0.03198,-0.06976 -0.04393,-0.106732 -0.0239,-0.07394 -0.03829,-0.155153 -0.05049,-0.253906 -0.01975,-0.159579 -0.03287,-0.29438 -0.03637,-0.409913 -0.0019,-0.05777 -9.33e-4,-0.110705 0.0023,-0.15956 0.0033,-0.04886 0.0098,-0.09364 0.01919,-0.134989 0.0094,-0.04137 0.02204,-0.07932 0.03824,-0.114566 0.0162,-0.03525 0.036,-0.06776 0.05966,-0.0983 0.02367,-0.03053 0.05128,-0.05907 0.08323,-0.08631 0.03193,-0.02722 0.06823,-0.0532 0.10921,-0.07854 0.0037,-0.0023 0.009,-0.0037 0.01555,-0.0042 z m 2.765565,2.004385 c 0.0093,7e-5 0.01868,4.2e-4 0.02792,9.34e-4 0.03707,0.0028 0.0733,0.0098 0.108473,0.02134 0.03516,0.01153 0.06923,0.02745 0.101974,0.04734 0.03273,0.01989 0.06416,0.04384 0.09394,0.07144 0.02979,0.02764 0.05799,0.05892 0.0843,0.09367 0.06302,0.109926 0.195428,0.286014 0.310484,0.449824 0.05753,0.08191 0.110733,0.160755 0.148715,0.226718 0.019,0.03301 0.03418,0.06273 0.04421,0.08805 0.01004,0.02531 0.01494,0.04627 0.01331,0.06147 -0.0077,0.07189 -0.01938,0.134726 -0.03562,0.189558 -0.01625,0.05483 -0.03707,0.101601 -0.06321,0.141417 -0.02615,0.03983 -0.05759,0.07266 -0.09495,0.0995 -0.03735,0.02685 -0.08065,0.04771 -0.130572,0.06361 -0.03413,0.01088 -0.05953,0.01975 -0.08249,0.02512 -0.02297,0.0054 -0.04351,0.0072 -0.0679,0.0042 -0.04879,-0.0059 -0.113114,-0.03138 -0.243456,-0.08758 -0.01013,-0.0042 -0.02143,-0.04183 -0.03357,-0.09595 -0.01209,-0.05411 -0.02507,-0.124828 -0.03842,-0.195782 -0.01335,-0.07095 -0.02713,-0.142089 -0.04104,-0.196991 -0.01391,-0.0549 -0.02792,-0.09355 -0.04165,-0.0995 -0.01004,-0.0042 -0.03324,0.136856 -0.06435,0.287518 -0.01555,0.07533 -0.0331,0.15307 -0.05196,0.216073 -0.0094,0.03151 -0.01924,0.05932 -0.02927,0.08135 -0.01004,0.02204 -0.02026,0.03824 -0.03072,0.04655 -0.05059,0.0402 -0.09656,0.07043 -0.139741,0.09066 -0.04319,0.02022 -0.08362,0.03044 -0.123204,0.03072 -0.03959,2.71e-4 -0.07832,-0.0094 -0.11811,-0.02904 -0.03978,-0.01966 -0.0806,-0.04928 -0.124408,-0.08886 v -6.5e-5 c -0.0388,-0.03506 -0.07788,-0.08062 -0.114702,-0.131771 -0.03684,-0.05116 -0.07135,-0.107867 -0.101035,-0.165187 -0.0297,-0.05732 -0.05457,-0.115238 -0.07198,-0.1688 -0.01741,-0.05356 -0.02741,-0.102815 -0.02741,-0.142688 0,-0.03983 0.0042,-0.07677 0.01167,-0.111484 0.0076,-0.03474 0.01863,-0.06718 0.03268,-0.09803 0.02806,-0.06169 0.06798,-0.11691 0.115304,-0.170607 0.09464,-0.1074 0.218926,-0.20879 0.337666,-0.34403 0.03936,-0.03922 0.079,-0.07253 0.118582,-0.100373 0.03959,-0.02783 0.07912,-0.05013 0.118385,-0.06722 0.03927,-0.01709 0.07827,-0.02895 0.116704,-0.0359 0.02881,-0.0052 0.05735,-0.0077 0.08544,-0.0074 z"
         style="opacity:1;fill:#ffffff;fill-opacity:1;stroke:none;stroke-width:0.1722005;stroke-linecap:round;stroke-linejoin:round;stroke-miterlimit:0.2;stroke-dasharray:none;stroke-opacity:1" />
      <path
         inkscape:connector-curvature="0"
         id="path3874"
         d="m 55.546054,41.585134 c -0.04543,-9.34e-4 -0.100149,0.0099 -0.166994,0.02993 -0.02881,0.0086 -0.05303,0.01751 -0.07446,0.02834 -0.02143,0.01083 -0.04011,0.02358 -0.05785,0.03997 -0.03544,0.03278 -0.06713,0.08016 -0.109678,0.155545 -0.02208,0.03917 -0.04872,0.0787 -0.07727,0.115967 -0.02853,0.03726 -0.059,0.07226 -0.08879,0.102381 -0.02979,0.03011 -0.05889,0.05536 -0.0847,0.07305 -0.02582,0.0177 -0.04832,0.02787 -0.06495,0.02787 -0.02106,0 -0.328725,0.138256 -0.693214,0.311558 -0.115444,0.05489 -0.220504,0.09983 -0.233479,0.09983 -0.01298,0 -0.154738,0.06171 -0.314971,0.137131 -0.160237,0.07542 -0.298064,0.137131 -0.306333,0.137131 -0.01774,0 -0.180785,0.08872 -0.342489,0.181855 -0.161704,0.09314 -0.322077,0.190632 -0.33466,0.208108 -0.01125,0.01564 -0.01653,0.0616 -0.01713,0.123068 -4.67e-4,0.06147 0.0033,0.138504 0.01065,0.216409 0.0073,0.07791 0.01783,0.156652 0.03025,0.22163 0.01247,0.06498 0.0268,0.116191 0.04165,0.138872 0.0261,0.03983 0.03987,0.05983 0.05618,0.0622 0.01634,0.0023 0.03525,-0.01289 0.07164,-0.04366 0.04095,-0.0346 0.08271,-0.0739 0.0928,-0.08731 0.01008,-0.0134 0.426623,-0.223628 0.925624,-0.467164 0.228567,-0.111555 0.424046,-0.20392 0.59385,-0.279818 0.169809,-0.0759 0.313948,-0.13532 0.439781,-0.180921 0.125832,-0.04561 0.233385,-0.07742 0.330037,-0.09809 0.09665,-0.02068 0.182429,-0.03016 0.264681,-0.03128 0.08068,-9.34e-4 0.169114,-0.0093 0.256451,-0.02232 0.08734,-0.01303 0.173576,-0.03081 0.249684,-0.05102 0.07611,-0.02022 0.142095,-0.04277 0.189092,-0.06542 0.02349,-0.01134 0.04225,-0.02269 0.05511,-0.03376 0.01289,-0.01107 0.01989,-0.02176 0.01989,-0.03194 0,-0.01783 -0.09119,-0.133087 -0.202683,-0.256114 -0.07885,-0.08701 -0.130781,-0.150969 -0.165182,-0.207365 -0.01718,-0.0282 -0.03002,-0.05449 -0.03964,-0.08082 -0.0096,-0.02633 -0.01606,-0.05271 -0.0204,-0.08102 -0.01452,-0.09397 -0.03007,-0.168613 -0.04935,-0.226517 -0.0097,-0.02895 -0.02026,-0.05371 -0.03212,-0.07459 -0.01186,-0.02087 -0.02502,-0.03791 -0.03983,-0.05136 -0.0148,-0.01345 -0.03119,-0.0233 -0.04962,-0.02993 -0.0184,-0.0066 -0.0388,-0.01 -0.06153,-0.01046 z"
         style="opacity:1;fill:#ffffff;fill-opacity:1;stroke:none;stroke-width:0.1722005;stroke-linecap:round;stroke-linejoin:round;stroke-miterlimit:0.2;stroke-dasharray:none;stroke-opacity:1" />
      <path
         inkscape:connector-curvature="0"
         id="path3872"
         d="m 43.588108,41.307127 c -0.03581,-0.01111 -0.06991,-0.01041 -0.105261,9.34e-4 -0.03534,0.01144 -0.07198,0.03371 -0.112825,0.06582 -0.02064,0.01625 -0.03656,0.02979 -0.04854,0.043 -0.012,0.01321 -0.02003,0.02605 -0.02484,0.04067 -0.0096,0.02923 -0.0063,0.06571 0.0042,0.127154 0.01279,0.07586 0.04468,0.189101 0.07084,0.251697 0.01307,0.03128 0.02498,0.07821 0.03357,0.128559 0.0086,0.05034 0.01387,0.104098 0.01377,0.149181 -5.1e-5,0.04841 -0.0047,0.09311 -0.01564,0.137262 -0.01097,0.04417 -0.02829,0.08778 -0.05377,0.13412 -0.02545,0.04636 -0.05904,0.0954 -0.102516,0.150386 -0.04347,0.05499 -0.0968,0.11592 -0.161834,0.18601 -0.05988,0.06452 -0.106643,0.120547 -0.14068,0.169604 -0.03404,0.04906 -0.05535,0.09113 -0.06428,0.127755 -0.0047,0.0183 -0.0059,0.0353 -0.0042,0.05109 0.0019,0.01578 0.0064,0.03035 0.01415,0.04398 0.01541,0.02722 0.04286,0.05055 0.08189,0.07144 0.01228,0.0066 0.02675,0.0098 0.04534,0.0091 0.01863,-9.34e-4 0.04132,-0.0055 0.0701,-0.0148 0.05761,-0.01863 0.13954,-0.05575 0.261203,-0.116172 0.09867,-0.04903 0.185385,-0.08962 0.262679,-0.122597 0.07729,-0.03296 0.145152,-0.05833 0.206161,-0.0768 0.06101,-0.01849 0.115159,-0.03012 0.164986,-0.03562 0.04982,-0.0055 0.09534,-0.0049 0.139068,9.33e-4 0.03717,0.005 0.102801,0.02484 0.184605,0.05417 0.0818,0.02932 0.179773,0.06818 0.281691,0.11142 0.101922,0.04323 0.207814,0.09085 0.305329,0.137598 0.09752,0.04675 0.186659,0.09266 0.255245,0.132508 0.11283,0.06555 0.316918,0.173983 0.519526,0.277806 0.202608,0.103828 0.40375,0.203057 0.510753,0.250157 0.09047,0.03983 0.168786,0.06392 0.23382,0.07218 0.03249,0.0042 0.06174,0.0042 0.08744,4.67e-4 0.02573,-0.0037 0.04796,-0.01158 0.06656,-0.02334 0.01592,-0.01008 0.02951,-0.03843 0.0402,-0.07794 0.01069,-0.0395 0.01849,-0.09018 0.02283,-0.145031 0.0042,-0.05485 0.0052,-0.113833 0.0019,-0.169939 -0.0033,-0.05611 -0.01018,-0.109365 -0.0219,-0.152665 -0.01284,-0.04749 -0.03128,-0.08947 -0.06194,-0.130833 -0.03067,-0.04137 -0.07359,-0.0821 -0.135525,-0.127088 -0.06193,-0.04501 -0.142845,-0.09422 -0.249484,-0.152594 -0.106633,-0.05838 -0.238983,-0.125912 -0.403755,-0.207436 -0.354605,-0.175454 -0.632812,-0.314415 -0.855254,-0.429472 -0.222442,-0.115051 -0.38916,-0.20617 -0.520865,-0.285911 -0.131706,-0.07974 -0.228358,-0.148107 -0.31075,-0.217609 -0.0824,-0.06951 -0.150536,-0.140161 -0.225047,-0.22451 -0.05449,-0.06168 -0.101316,-0.109767 -0.14349,-0.145232 -0.04216,-0.03548 -0.07964,-0.05834 -0.115435,-0.06944 z"
         style="opacity:1;fill:#ffffff;fill-opacity:1;stroke:none;stroke-width:0.1722005;stroke-linecap:round;stroke-linejoin:round;stroke-miterlimit:0.2;stroke-dasharray:none;stroke-opacity:1" />
    </g>
    <g
       transform="matrix(0.94628125,0,0,0.96575297,-52.419266,-37.872724)"
       id="layer1-4"
       inkscape:label="Layer 1"
       style="fill:#ffffff;fill-opacity:1">
      <path
         sodipodi:nodetypes="sccccccccscccccc"
         inkscape:connector-curvature="0"
         id="rect845"
         d="m 79.45323,43.649424 c -0.251423,-5.29e-4 -0.501515,0.08479 -0.594796,0.255799 l -18.163471,10.171482 0.07672,17.881881 c -0.01921,0.562976 0.471321,0.926541 0.873185,0.956088 l 34.358185,3.73e-4 c 0.603262,5.73e-4 0.812478,-0.439826 0.75367,-1.135921 L 96.569038,52.888395 80.056293,43.905739 c -0.09884,-0.169965 -0.351642,-0.255891 -0.603063,-0.256315 z m 0.09966,4.268399 12.859795,7.616306 0.51111,14.164574 -28.300967,0.09449 -0.22243,-13.747971 z"
         style="opacity:1;fill:#ffffff;fill-opacity:1;stroke:none;stroke-width:1.329;stroke-linecap:round;stroke-linejoin:round;stroke-miterlimit:0.2;stroke-dasharray:none;stroke-opacity:1" />
    </g>
  </g>
</svg>
