<?xml version="1.0" encoding="UTF-8" standalone="no"?>
<!-- Created with Inkscape (http://www.inkscape.org/) -->

<svg
   xmlns:dc="http://purl.org/dc/elements/1.1/"
   xmlns:cc="http://creativecommons.org/ns#"
   xmlns:rdf="http://www.w3.org/1999/02/22-rdf-syntax-ns#"
   xmlns:svg="http://www.w3.org/2000/svg"
   xmlns="http://www.w3.org/2000/svg"
   xmlns:sodipodi="http://sodipodi.sourceforge.net/DTD/sodipodi-0.dtd"
   xmlns:inkscape="http://www.inkscape.org/namespaces/inkscape"
   width="36.320667mm"
   height="29.302446mm"
   viewBox="0 0 36.320667 29.302446"
   version="1.1"
   id="svg2069"
   inkscape:version="0.92.2 (5c3e80d, 2017-08-06)"
   sodipodi:docname="waste.svg">
  <defs
     id="defs2063" />
  <sodipodi:namedview
     id="base"
     pagecolor="#ffffff"
     bordercolor="#666666"
     borderopacity="1.0"
     inkscape:pageopacity="0.0"
     inkscape:pageshadow="2"
     inkscape:zoom="1.979899"
     inkscape:cx="20.733584"
     inkscape:cy="-6.7025987"
     inkscape:document-units="mm"
     inkscape:current-layer="layer1"
     showgrid="false"
     fit-margin-top="0"
     fit-margin-left="0"
     fit-margin-right="0"
     fit-margin-bottom="0"
     inkscape:window-width="1920"
     inkscape:window-height="1017"
     inkscape:window-x="1592"
     inkscape:window-y="6"
     inkscape:window-maximized="1" />
  <metadata
     id="metadata2066">
    <rdf:RDF>
      <cc:Work
         rdf:about="">
        <dc:format>image/svg+xml</dc:format>
        <dc:type
           rdf:resource="http://purl.org/dc/dcmitype/StillImage" />
        <dc:title></dc:title>
      </cc:Work>
    </rdf:RDF>
  </metadata>
  <g
     inkscape:label="Layer 1"
     inkscape:groupmode="layer"
     id="layer1"
     transform="translate(-59.702762,-44.223777)">
    <path
       style="opacity:1;fill:#ffffff;fill-opacity:1;stroke:none;stroke-width:1.329;stroke-linecap:round;stroke-linejoin:round;stroke-miterlimit:0.2;stroke-dasharray:none;stroke-opacity:1"
       d="m 78.412132,44.223779 c -0.251423,-5.29e-4 -0.501515,0.08479 -0.594796,0.255799 L 59.813265,71.91873 c -0.39719,0.72834 0.341392,1.564376 1.180291,1.546675 l 33.873903,0.05943 c 0.863118,0.04782 1.497555,-1.148532 0.954463,-2.222603 L 79.015195,44.480094 c -0.09884,-0.169965 -0.351642,-0.255891 -0.603063,-0.256315 z m -0.136572,4.646375 13.465399,21.922621 -27.167038,-0.18899 z"
       id="rect845"
       inkscape:connector-curvature="0"
       sodipodi:nodetypes="sccccccscccc" />
    <path
       id="path6"
       d="m 73.789353,63.101813 c -0.101544,0.961701 0.129646,1.94305 0.655539,2.75498 0.239154,0.36927 0.535823,0.700871 0.876098,0.97975 0.170441,0.139721 0.35175,0.266231 0.54177,0.377841 0.0955,0.0561 0.193252,0.10835 0.292876,0.15695 0.04998,0.0244 0.10051,0.0476 0.151378,0.07 0.08905,0.0392 0.117664,-0.0854 0.157001,-0.1589 0.131332,-0.24492 0.22646,-0.50889 0.281682,-0.7813 0.01583,-0.0779 0.05368,-0.122481 -0.02609,-0.15944 -0.05002,-0.0231 -0.09944,-0.0476 -0.148101,-0.0735 -0.09695,-0.0516 -0.191191,-0.108131 -0.282102,-0.169611 -0.377466,-0.255349 -0.696711,-0.594589 -0.928415,-0.98705 -0.22796,-0.386159 -0.368988,-0.821469 -0.410907,-1.267929 -0.01131,-0.12001 -0.01573,-0.24075 -0.0127,-0.36125 0.0019,-0.0695 0.006,-0.13912 0.01227,-0.20844 -0.06909,-0.0255 -0.139155,-0.0484 -0.210019,-0.0687 -0.308097,-0.0874 -0.630716,-0.12261 -0.95029,-0.103479 m 2.426658,-2.043761 c 0.7894,-0.568479 1.827276,-0.72946 2.751803,-0.42548 0.219013,0.072 0.42969,0.16895 0.627016,0.28814 0.08505,0.0514 0.176107,0.16538 0.258167,0.0953 0.09962,-0.0849 0.193394,-0.17696 0.280278,-0.2749 0.160044,-0.180269 0.297138,-0.38082 0.406833,-0.59539 -0.202621,-0.15078 -0.418636,-0.28346 -0.644862,-0.395829 -0.882704,-0.43864 -1.911023,-0.554081 -2.869787,-0.32644 -0.455544,0.108229 -0.892117,0.292909 -1.28738,0.543769 -0.08861,0.0562 -0.175126,0.115801 -0.25934,0.17855 0.0599,0.11733 0.128053,0.23045 0.20365,0.3383 0.150349,0.214611 0.330393,0.40837 0.533622,0.574 m 3.057138,5.29541 c 0.04436,0.274151 0.129084,0.541541 0.250394,0.791231 0.04158,0.0853 0.124868,0.324949 0.222479,0.28112 0.101636,-0.0457 0.201542,-0.0953 0.299291,-0.14884 0.403881,-0.22133 0.771088,-0.50857 1.083494,-0.846971 0.624159,-0.676249 1.016658,-1.54968 1.104853,-2.465919 0.02437,-0.253011 0.02609,-0.508221 0.0052,-0.76161 -0.0076,-0.0924 0.02242,-0.13789 -0.08347,-0.14067 -0.06965,-0.001 -0.139482,-7.68e-4 -0.209128,0.002 -0.138688,0.005 -0.276905,0.0232 -0.413062,0.0498 -0.136017,0.0266 -0.270207,0.0631 -0.400883,0.10915 -0.100986,0.0356 -0.0586,0.0807 -0.05368,0.17587 0.0035,0.0711 0.0048,0.1421 0.0033,0.21326 -0.0048,0.25019 -0.03977,0.49973 -0.104776,0.74139 -0.237232,0.8803 -0.873334,1.6248 -1.703858,2.0001 m -7.964176,-1.95462 c 0.972115,-1.70963 3.372308,-2.05465 4.794674,-0.69967 0.04365,0.0416 0.454558,0.51166 0.439664,0.52023 0.10111,-0.0584 0.202199,-0.11675 0.303414,-0.17512 0.113439,-0.0655 0.226881,-0.131 0.34037,-0.19646 0.06262,-0.0361 0.0094,-0.0877 -0.0022,-0.15324 -0.02393,-0.13569 -0.01307,-0.27714 0.03069,-0.40777 0.06638,-0.19794 0.207913,-0.36673 0.390769,-0.4673 0.02226,-0.0122 0.247442,-0.095 0.247442,-0.0913 0,-0.0448 0,-0.0898 0,-0.13455 0,-0.14736 0,-0.29457 0,-0.44192 0,-0.0549 0,-0.1097 0,-0.16463 0,-0.0804 -0.129741,-0.0465 -0.194188,-0.0539 -1.689995,-0.1916 -2.914378,-1.77471 -2.702016,-3.45362 0.09578,-0.75679 0.484581,-1.46301 1.06668,-1.95486 0.356621,-0.30129 0.781111,-0.51974 1.234029,-0.63329 0.115545,-0.0289 0.06961,-0.15023 0.06961,-0.26159 0,-0.0942 0,-0.18842 0,-0.2826 -1.774115,0.26079 -3.276807,1.57196 -3.778203,3.29328 -0.129976,0.44641 -0.191566,0.91207 -0.184072,1.37685 0.0049,0.29694 0.0378,0.59337 0.09889,0.88406 0.02275,0.10835 -0.02389,0.0831 -0.115734,0.1158 -0.06565,0.0234 -0.130816,0.0483 -0.195405,0.0746 -0.152738,0.0622 -0.30215,0.13264 -0.447441,0.21068 -0.818112,0.43957 -1.494026,1.12157 -1.92245,1.94582 -0.615962,1.18541 -0.693055,2.61049 -0.20023,3.85304 0.130489,-0.0753 0.260978,-0.15072 0.391516,-0.22598 0.09452,-0.0545 0.057,-0.0568 0.02618,-0.17537 -0.0532,-0.20458 -0.08505,-0.4147 -0.09493,-0.62575 -0.03606,-0.57761 0.116347,-1.17487 0.402944,-1.67542 m 12.414685,4.081 c -0.80495,0.48996 -1.767699,0.6318 -2.668104,0.32038 -0.900171,-0.309969 -1.616647,-1.0376 -1.91622,-1.94077 -0.168054,-0.50707 -0.202058,-1.05717 -0.09616,-1.58077 0.0556,-0.27428 0.149177,-0.54064 0.276811,-0.78963 -0.02211,-0.0534 -0.222385,-0.12843 -0.271143,-0.15658 -0.118452,-0.0686 -0.237093,-0.13691 -0.355544,-0.20534 -0.05476,-0.0317 -0.03807,-0.0383 -0.09002,0.0143 -0.09732,0.0983 -0.218733,0.17203 -0.351096,0.21227 -0.234936,0.0715 -0.49526,0.0342 -0.70055,-0.10081 -0.02703,-0.0178 -0.172784,-0.15662 -0.184774,-0.14973 -0.04576,0.0263 -0.09147,0.0529 -0.137235,0.0792 -0.127819,0.0737 -0.255687,0.14759 -0.383507,0.22143 -0.0423,0.0244 -0.08465,0.0489 -0.126928,0.0733 -0.04333,0.025 0.05682,0.16304 0.07466,0.20327 0.232316,0.52276 0.313344,1.10692 0.233533,1.67332 -0.119156,0.84551 -0.596197,1.62682 -1.302929,2.10854 -0.762189,0.51947 -1.725967,0.67736 -2.613024,0.41667 -0.446128,-0.13157 -0.860547,-0.36342 -1.204336,-0.67681 -0.029,-0.0263 -0.171612,-0.19218 -0.197046,-0.17742 -0.04561,0.0263 -0.09119,0.0527 -0.136766,0.0789 -0.102803,0.0594 -0.20571,0.11869 -0.308566,0.17806 1.173423,1.48229 3.199337,2.11033 5.005581,1.55222 0.48449,-0.1497 0.944015,-0.37962 1.355061,-0.67658 0.10852,-0.0784 0.21372,-0.16145 0.315078,-0.24889 0.0688,-0.0593 0.07175,-0.11107 0.149691,-0.0437 0.05107,0.0442 0.103093,0.0874 0.156065,0.12946 0.225849,0.17916 0.468469,0.33722 0.723406,0.47194 0.833661,0.44046 1.793459,0.61741 2.729273,0.50249 1.203165,-0.14774 2.323054,-0.772 3.075828,-1.72295 -0.130537,-0.0753 -0.260979,-0.15067 -0.391516,-0.22599 -0.103746,-0.0598 -0.118078,0.0212 -0.203182,0.10216 -0.14028,0.1332 -0.293344,0.25324 -0.456339,0.35792 m -0.264868,-7.143772 c -0.186601,-0.107669 -0.380696,-0.20259 -0.580458,-0.283609 -0.108757,-0.044 -0.219295,-0.0842 -0.331048,-0.119901 0.02491,-0.11475 0.04557,-0.23039 0.06174,-0.346629 0.05536,-0.397441 0.05919,-0.802071 0.01165,-1.200511 -0.0805,-0.67427 -0.310954,-1.32771 -0.671089,-1.90339 -0.71596,-1.14447 -1.922215,-1.93837 -3.258725,-2.13485 0,0.10666 0,0.21329 0,0.31994 0,0.0595 0,0.11897 0,0.17845 0,0.0643 0.214983,0.0854 0.274889,0.104951 0.459336,0.150029 0.881577,0.410069 1.222462,0.752649 0.656287,0.6596 0.984806,1.597241 0.878673,2.52201 -0.09541,0.84086 -0.545003,1.6158 -1.223633,2.12095 -0.415683,0.30937 -0.907946,0.510721 -1.421615,0.579691 -0.03246,0.004 -0.25667,0.0163 -0.25667,0.0336 0,0.0425 0,0.0847 0,0.127071 0,0.158509 0,0.317 0,0.4755 0,0.049 0,0.0979 0,0.14689 0,0.0472 0.112455,0.0501 0.152972,0.0662 0.210393,0.0834 0.381538,0.252771 0.467063,0.462461 0.0407,0.0999 0.06151,0.2074 0.06151,0.315179 0,0.0356 -0.0474,0.27619 -0.03896,0.28111 0.109978,0.0634 0.219903,0.126941 0.329876,0.1904 0.106462,0.0616 0.212971,0.123 0.319433,0.18446 0.02089,0.0121 0.353764,-0.42039 0.409829,-0.47729 0.340416,-0.34616 0.764672,-0.61068 1.226397,-0.761299 1.735661,-0.56645 3.607761,0.52295 3.982367,2.30961 0.09752,0.47996 0.07897,0.981579 -0.05536,1.452759 -0.03223,0.112761 0.06258,0.117101 0.159155,0.172841 0.0924,0.0535 0.18468,0.106649 0.277091,0.159999 0.838113,-2.113269 -0.0304,-4.59346 -1.997483,-5.72914"
       inkscape:connector-curvature="0"
       style="stroke-width:0.04683761;fill:#ffffff;fill-opacity:1" />
  </g>
</svg>
